<svg xmlns="http://www.w3.org/2000/svg" viewBox="0 0 487.31 219"><defs><style>.cls-1{fill:#424242;}.cls-2{fill:#dca3b4;}.cls-3{fill:#a98f9a;}.cls-4{fill:#f7edf4;}.cls-5{fill:#564f4f;}.cls-6{fill:#211915;}.cls-7{fill:#777782;}.cls-8{fill:#56585f;}.cls-9{fill:#faf7fa;}.cls-10{fill:#fbfcfc;}.cls-11{fill:#f2f8fc;}.cls-12{fill:#fefdf6;}.cls-13{fill:#f6f8f2;}.cls-14{fill:#f1dde9;}.cls-15{fill:#ddc2ce;}.cls-16{fill:#baa0ad;}.cls-17{fill:#ecd3e1;}.cls-18{fill:#c1a1b7;}.cls-19{fill:#af9fb4;}.cls-20{fill:#a98daa;}.cls-21{fill:#ae95a9;}.cls-22{fill:#ad89a4;}.cls-23{fill:#c0a4bb;}.cls-24{fill:#a0849a;}.cls-25{fill:#a07c9e;}.cls-26{fill:#b396b3;}.cls-27{fill:#d4b7c4;}.cls-28{fill:#e1d5e7;}.cls-29{fill:#cdb8d0;}.cls-30{fill:#c4aeb9;}.cls-31{fill:#bca8b7;}.cls-32{fill:#ccadc3;}.cls-33{fill:#d7b9ce;}.cls-34{fill:#eed6e6;}.cls-35{fill:#bea1bf;}.cls-36{fill:#d1c3d4;}.cls-37{fill:#dcd4e2;}.cls-38{fill:#dfccdb;}.cls-39{fill:#e7d5e2;}.cls-40{fill:#f4e4e6;}.cls-41{fill:#f3efed;}.cls-42{fill:#63646d;}.cls-43{fill:#f3e8ed;}.cls-44{fill:#5d5f67;}.cls-45{fill:#d3cadb;}.cls-46{fill:#d6d2e2;}.cls-47{fill:#87858f;}.cls-48{fill:#e8dce6;}.cls-49{fill:#f2e5ee;}.cls-50{fill:#bab5b8;}.cls-51{fill:#e3d3db;}.cls-52{fill:#d1cadf;}.cls-53{fill:#a68494;}.cls-54{fill:#836f8b;}.cls-55{fill:#dccde3;}.cls-56{fill:#d1bfc9;}.cls-57{fill:#d6c4d4;}.cls-58{fill:#e4ccdd;}.cls-59{fill:#ecd1dc;}.cls-60{fill:#e4c6db;}.cls-61{fill:#c5a9c7;}.cls-62{fill:#eacadb;}.cls-63{fill:#c198b6;}.cls-64{fill:#c9bbc8;}.cls-65{fill:#bbabc3;}.cls-66{fill:#9e798b;}.cls-67{fill:#d9cfd9;}.cls-68{fill:#928487;}.cls-69{fill:#bd97ac;}.cls-70{fill:#cbb3d3;}.cls-71{fill:#e7d0db;}.cls-72{fill:#bca6bf;}.cls-73{fill:#332f2e;}.cls-74{fill:#f6f0f5;}.cls-75{fill:#453b49;}.cls-76{fill:#9093a0;}.cls-77{fill:#4d4252;}.cls-78{fill:#444b52;}.cls-79{fill:#4b353e;}.cls-80{fill:#57575a;}.cls-81{fill:#73696c;}.cls-82{fill:#a694aa;}.cls-83{fill:#3f3f43;}.cls-84{fill:#71717b;}.cls-85{fill:#5f5266;}.cls-86{fill:#564b5d;}.cls-87{fill:#66596f;}.cls-88{fill:#291a28;}.cls-89{fill:#fff;}.cls-90{fill:#8f83a6;}.cls-91{fill:#8c7892;}.cls-92{fill:#8c88ab;}.cls-93{fill:#aeb0bb;}.cls-94{fill:#d4c6db;}.cls-95{fill:#928099;}.cls-96{fill:#6a6b74;}.cls-97{fill:#a89fbe;}.cls-98{fill:#4d406f;}.cls-99{fill:#989ca8;}.cls-100{fill:#928e97;}.cls-101{fill:#70648c;}.cls-102{fill:#a29ebc;}.cls-103{fill:#7d7c87;}.cls-104{fill:#b9bcc6;}.cls-105{fill:#dacdde;}.cls-106{fill:#c9cacf;}.cls-107{fill:#b5b3ce;}.cls-108{fill:#595759;}.cls-109{fill:#b3b8bb;}.cls-110{fill:#a5a1a9;}.cls-111{fill:#fffffd;}.cls-112{fill:#d8d9dd;}.cls-113{fill:#e1e9e9;}.cls-114{fill:#bbbad1;}.cls-115{fill:#e9e4e9;}.cls-116{fill:#cdc7c9;}.cls-117{fill:#d9d8da;}.cls-118{fill:#f1e9f0;}.cls-119{fill:#ded8e6;}.cls-120{fill:#bda9cd;}.cls-121{fill:#806673;}.cls-122{fill:#d2d1e2;}.cls-123{fill:#e9dfe0;}.cls-124{fill:#c7c4c1;}.cls-125{fill:#ebecee;}.cls-126{fill:#b1a6a9;}.cls-127{fill:#9d9699;}.cls-128{fill:#827478;}.cls-129{fill:#5c4859;}.cls-130{fill:#9c7f8c;}.cls-131{fill:#493845;}.cls-132{fill:#4c3638;}.cls-133{fill:#966f78;}.cls-134{fill:#795b56;}.cls-135{fill:#8d7f61;}.cls-136{fill:#8f7972;}.cls-137{fill:#7a6452;}.cls-138{fill:#c9c6c8;}.cls-139{fill:#bbb8c0;}.cls-140{fill:#e1e0de;}.cls-141{fill:#e4e9de;}.cls-142{fill:#edf1e7;}.cls-143{fill:#f1f4f5;}.cls-144{fill:none;stroke:#040006;stroke-miterlimit:10;}.cls-145{fill:#584235;}.cls-146{fill:#493e36;}.cls-147{fill:#bcbdc2;}.cls-148{fill:#24171e;}.cls-149{fill:#ce876e;}.cls-150{fill:#98833c;}.cls-151{fill:#c8bb7b;}.cls-152{fill:#998041;}.cls-153{fill:#fbf2c3;}.cls-154{fill:#e5d0cb;}.cls-155{fill:#fcfae6;}.cls-156{fill:#b66d45;}.cls-157{fill:#ca5b27;}.cls-158{fill:#8f5d3f;}.cls-159{fill:#73615a;}.cls-160{fill:#da956d;}.cls-161{fill:#b59548;}.cls-162{fill:#baac90;}.cls-163{fill:#faeeae;}.cls-164{fill:#6d3615;}.cls-165{fill:#747074;}.cls-166{fill:#81615c;}.cls-167{fill:#9c7974;}.cls-168{fill:#7f4d29;}.cls-169{fill:#f4dc81;}.cls-170{fill:#7e8b4d;}.cls-171{fill:#b7cda2;}.cls-172{fill:#d5cabb;}.cls-173{fill:#c6b3a4;}.cls-174{fill:#686046;}.cls-175{fill:#ccbd8a;}.cls-176{fill:#ebddcd;}.cls-177{fill:#ebcab1;}.cls-178{fill:#dfa582;}.cls-179{fill:#b1835d;}.cls-180{fill:#528368;}.cls-181{fill:#74a278;}.cls-182{fill:#747c30;}.cls-183{fill:#aeaa67;}.cls-184{fill:#7f3c30;}.cls-185{fill:#cec4ae;}.cls-186{fill:#a68288;}.cls-187{fill:#b39b88;}.cls-188{fill:#ad8c91;}.cls-189{fill:#e6ba9a;}.cls-190{fill:#f0d5a3;}.cls-191{fill:#d68b77;}.cls-192{fill:#edcc90;}.cls-193{fill:#e9c4a4;}.cls-194{fill:#e7d0b8;}</style></defs><title>logo</title><g id="Capa_2" data-name="Capa 2"><g id="home"><g id="logo"><path class="cls-1" d="M107.86,57.75V82.93h18.59v3.25H107.86V121h-3.25V54.5h25.87v3.25Z"/><path class="cls-1" d="M163.82,54.5v52.62a13.83,13.83,0,0,1-1.13,5.56,14.48,14.48,0,0,1-3,4.52,14.65,14.65,0,0,1-4.48,3,13.49,13.49,0,0,1-5.51,1.13,13.82,13.82,0,0,1-5.56-1.13,14.27,14.27,0,0,1-7.57-7.57,13.79,13.79,0,0,1-1.13-5.56V54.5h3.25v52.62a10.5,10.5,0,0,0,.89,4.28,11.1,11.1,0,0,0,5.85,5.85,10.53,10.53,0,0,0,4.28.89,10.2,10.2,0,0,0,4.23-.89,11.49,11.49,0,0,0,3.44-2.36,11.32,11.32,0,0,0,2.36-3.49,10.5,10.5,0,0,0,.89-4.28V54.5Z"/><path class="cls-1" d="M198,54.5V121H194.8L173.95,63.55V121H170.7V54.5h3.25l20.85,57.44V54.5Z"/><path class="cls-1" d="M218.46,54.5A14.24,14.24,0,0,1,224,55.58a13.78,13.78,0,0,1,4.51,3,14.67,14.67,0,0,1,3,4.48,13.5,13.5,0,0,1,1.13,5.51v38.36a13.5,13.5,0,0,1-1.13,5.51,14.66,14.66,0,0,1-3,4.47,13.75,13.75,0,0,1-4.51,3,14.24,14.24,0,0,1-5.53,1.08H204.93V54.5h13.53Zm11,14.07a10.18,10.18,0,0,0-.89-4.23,11.49,11.49,0,0,0-2.36-3.44,10.74,10.74,0,0,0-7.67-3.15H208.18v60H218.5a10.75,10.75,0,0,0,7.67-3.15,11.48,11.48,0,0,0,2.36-3.44,10.17,10.17,0,0,0,.89-4.23Z"/><path class="cls-1" d="M269.35,121l-4.62-20.85H245.65L241,121h-3.34L252.44,54.5h5.51L272.7,121Zm-23-24.1H264l-8.85-39.74Z"/><path class="cls-1" d="M290.89,118.23a10.2,10.2,0,0,0,4.23-.88,11.45,11.45,0,0,0,3.44-2.36,11.28,11.28,0,0,0,2.36-3.49,10.53,10.53,0,0,0,.89-4.28h3.24a13.83,13.83,0,0,1-1.13,5.56,14.45,14.45,0,0,1-3,4.52,14.66,14.66,0,0,1-4.47,3,13.5,13.5,0,0,1-5.51,1.13,13.83,13.83,0,0,1-5.56-1.13,14.27,14.27,0,0,1-7.57-7.57,13.83,13.83,0,0,1-1.13-5.56V68.37a13.83,13.83,0,0,1,1.13-5.56,14.26,14.26,0,0,1,7.57-7.57,14.28,14.28,0,0,1,11.07,0,14.13,14.13,0,0,1,7.52,7.51,13.83,13.83,0,0,1,1.13,5.56h-3.24a10.2,10.2,0,0,0-.89-4.23,11.4,11.4,0,0,0-5.8-5.8,10.2,10.2,0,0,0-4.23-.88,10.5,10.5,0,0,0-4.28.89,11.32,11.32,0,0,0-3.49,2.36,11.5,11.5,0,0,0-2.36,3.45,10.23,10.23,0,0,0-.89,4.24V107.2a10.56,10.56,0,0,0,.89,4.29,11.11,11.11,0,0,0,5.85,5.86A10.49,10.49,0,0,0,290.89,118.23Z"/><path class="cls-1" d="M311.94,121V54.5h3.24V121Z"/><path class="cls-1" d="M336.33,121.48a13.83,13.83,0,0,1-5.56-1.13,14.27,14.27,0,0,1-7.57-7.57,13.83,13.83,0,0,1-1.13-5.56V68.37a13.83,13.83,0,0,1,1.13-5.56,14.26,14.26,0,0,1,7.57-7.57,13.81,13.81,0,0,1,5.56-1.13,13.48,13.48,0,0,1,5.51,1.13,14.65,14.65,0,0,1,4.47,3,14.48,14.48,0,0,1,3,4.53,13.83,13.83,0,0,1,1.13,5.56v38.85a13.83,13.83,0,0,1-1.13,5.56,14.45,14.45,0,0,1-3,4.52,14.66,14.66,0,0,1-4.47,3A13.5,13.5,0,0,1,336.33,121.48Zm0-64.13a10.5,10.5,0,0,0-4.28.89,11.32,11.32,0,0,0-3.49,2.36,11.5,11.5,0,0,0-2.36,3.45,10.23,10.23,0,0,0-.89,4.24V107.2a10.56,10.56,0,0,0,.89,4.29,11.11,11.11,0,0,0,5.85,5.86,10.49,10.49,0,0,0,4.28.89,10.16,10.16,0,0,0,4.23-.89,11.25,11.25,0,0,0,5.8-5.86,10.56,10.56,0,0,0,.89-4.29V68.29a10.23,10.23,0,0,0-.89-4.24,11.4,11.4,0,0,0-5.8-5.81A10.18,10.18,0,0,0,336.33,57.35Zm8.85-19.77,1,3.15-18.88,5.9-1-3.15Z"/><path class="cls-1" d="M384.72,54.5V121h-3.25L360.63,63.55V121h-3.24V54.5h3.24l20.85,57.44V54.5Z"/><path class="cls-2" d="M128.43,212.51a3.85,3.85,0,0,0-.33-1.6,4.34,4.34,0,0,0-.89-1.3,4.28,4.28,0,0,0-1.32-.89,4,4,0,0,0-1.62-.33v-1.23a5.23,5.23,0,0,1,2.1.43,5.48,5.48,0,0,1,1.71,1.15,5.53,5.53,0,0,1,1.15,1.69,5.1,5.1,0,0,1,.43,2.08,5.22,5.22,0,0,1-.43,2.1,5.39,5.39,0,0,1-2.86,2.86,5.21,5.21,0,0,1-2.1.43H109.58a5.22,5.22,0,0,1-2.1-.43,5.39,5.39,0,0,1-2.86-2.86,5.4,5.4,0,0,1,0-4.18,5.34,5.34,0,0,1,2.84-2.84,5.23,5.23,0,0,1,2.1-.43v1.23a3.85,3.85,0,0,0-1.6.33,4.3,4.3,0,0,0-2.19,2.19,3.85,3.85,0,0,0-.33,1.6,4,4,0,0,0,.34,1.62,4.28,4.28,0,0,0,.89,1.32,4.36,4.36,0,0,0,1.3.89,3.86,3.86,0,0,0,1.6.33h14.71a4,4,0,0,0,1.62-.33,4.2,4.2,0,0,0,2.22-2.21A4,4,0,0,0,128.43,212.51Z"/><path class="cls-2" d="M124.27,219H109.58a6.34,6.34,0,0,1-2.54-.52,6.49,6.49,0,0,1-3.43-3.43,6.5,6.5,0,0,1,0-5.05,6.45,6.45,0,0,1,3.41-3.42,6.38,6.38,0,0,1,2.54-.52h1.1v3.42h-1.1a2.73,2.73,0,0,0-1.15.24,3.3,3.3,0,0,0-1,.67,3.21,3.21,0,0,0-.67,1,2.74,2.74,0,0,0-.24,1.15,2.9,2.9,0,0,0,.24,1.18,3.14,3.14,0,0,0,.66,1,3.25,3.25,0,0,0,1,.67,2.74,2.74,0,0,0,1.15.24h14.71a2.88,2.88,0,0,0,1.18-.24,3.21,3.21,0,0,0,1-.66,3.13,3.13,0,0,0,.66-1,2.86,2.86,0,0,0,.24-1.18,2.74,2.74,0,0,0-.24-1.15,3.24,3.24,0,0,0-.67-1,3.15,3.15,0,0,0-1-.66,2.88,2.88,0,0,0-1.18-.24h-1.1v-3.42h1.1a6.36,6.36,0,0,1,2.54.52,6.55,6.55,0,0,1,2.05,1.39,6.63,6.63,0,0,1,1.38,2,6.22,6.22,0,0,1,.52,2.53,6.33,6.33,0,0,1-.52,2.54,6.52,6.52,0,0,1-3.43,3.43A6.33,6.33,0,0,1,124.27,219Z"/><path class="cls-2" d="M129.66,199.16a5.22,5.22,0,0,1-.43,2.1,5.39,5.39,0,0,1-2.86,2.86,5.21,5.21,0,0,1-2.1.43H109.58a5.22,5.22,0,0,1-2.1-.43,5.39,5.39,0,0,1-2.86-2.86,5.22,5.22,0,0,1-.43-2.1,5.1,5.1,0,0,1,.43-2.08,5.55,5.55,0,0,1,1.15-1.69,5.49,5.49,0,0,1,1.71-1.15,5.23,5.23,0,0,1,2.1-.43h14.69a5.23,5.23,0,0,1,2.1.43,5.48,5.48,0,0,1,1.71,1.15,5.53,5.53,0,0,1,1.15,1.69A5.1,5.1,0,0,1,129.66,199.16Zm-24.24,0a4,4,0,0,0,.34,1.62,4.28,4.28,0,0,0,.89,1.32,4.36,4.36,0,0,0,1.3.89,3.86,3.86,0,0,0,1.6.33h14.71a4,4,0,0,0,1.62-.33,4.2,4.2,0,0,0,2.22-2.21,4,4,0,0,0,.34-1.62,3.84,3.84,0,0,0-.34-1.6,4.34,4.34,0,0,0-.89-1.3,4.29,4.29,0,0,0-1.32-.89,4,4,0,0,0-1.62-.33H109.55a3.86,3.86,0,0,0-1.6.33,4.31,4.31,0,0,0-2.2,2.19A3.85,3.85,0,0,0,105.42,199.16Z"/><path class="cls-2" d="M124.27,205.65H109.58a6.34,6.34,0,0,1-2.54-.52,6.5,6.5,0,0,1-3.43-3.43,6.34,6.34,0,0,1-.52-2.54,6.2,6.2,0,0,1,.52-2.53,6.55,6.55,0,0,1,3.42-3.41,6.38,6.38,0,0,1,2.54-.52h14.69a6.36,6.36,0,0,1,2.54.52,6.55,6.55,0,0,1,3.43,3.41,6.18,6.18,0,0,1,.52,2.52,6.32,6.32,0,0,1-.52,2.54,6.48,6.48,0,0,1-3.43,3.43A6.33,6.33,0,0,1,124.27,205.65Zm-14.72-9.52a2.74,2.74,0,0,0-1.15.24,3.27,3.27,0,0,0-1,.67,3.21,3.21,0,0,0-.67,1,2.75,2.75,0,0,0-.24,1.15,2.86,2.86,0,0,0,.24,1.18,3.11,3.11,0,0,0,.66,1,3.22,3.22,0,0,0,1,.67,2.74,2.74,0,0,0,1.15.24h14.71a2.88,2.88,0,0,0,1.18-.24,3.11,3.11,0,0,0,1.65-1.65,2.85,2.85,0,0,0,.24-1.18,2.75,2.75,0,0,0-.24-1.15,3.16,3.16,0,0,0-1.65-1.64,2.88,2.88,0,0,0-1.18-.24Z"/><path class="cls-2" d="M104.34,180.87h25.13v1.23L107.76,190h21.71v1.23H104.34V190l21.71-7.88H104.34Z"/><polygon class="cls-2" points="130.57 192.31 103.24 192.31 103.24 191.08 103.24 190.45 103.24 189.21 119.81 183.2 103.24 183.2 103.24 179.77 130.57 179.77 130.57 181 130.57 181.63 130.57 182.87 114 188.88 130.57 188.88 130.57 192.31"/><path class="cls-2" d="M105.57,168.49v5h23.91v1.23H105.57v5h-1.23V168.49Z"/><polygon class="cls-2" points="106.67 180.85 103.24 180.85 103.24 167.39 106.67 167.39 106.67 172.41 130.57 172.41 130.57 175.84 106.67 175.84 106.67 180.85"/><path class="cls-2" d="M118.88,162.73v3h10.6V167H104.34v-4.52a5.38,5.38,0,0,1,.41-2.09,5.19,5.19,0,0,1,1.13-1.7,5.54,5.54,0,0,1,1.69-1.15,5.11,5.11,0,0,1,2.08-.43h3.9a5,5,0,0,1,1.82.33,5.53,5.53,0,0,1,1.56.93,5.35,5.35,0,0,1,1.82,3.09l10.71-4.54v1.3Zm-1.23,3v-3.31a4.06,4.06,0,0,0-1.19-2.9,4.33,4.33,0,0,0-1.3-.89,3.85,3.85,0,0,0-1.6-.33h-3.9a3.76,3.76,0,0,0-1.56.33,4.3,4.3,0,0,0-2.19,2.19,3.85,3.85,0,0,0-.33,1.6v3.31Z"/><path class="cls-2" d="M130.57,168.1H103.24v-5.62a6.5,6.5,0,0,1,.49-2.51,6.32,6.32,0,0,1,1.37-2.06,6.69,6.69,0,0,1,2-1.37,6.23,6.23,0,0,1,2.52-.52h3.9a6.06,6.06,0,0,1,2.22.41,6.6,6.6,0,0,1,1.87,1.12,6.39,6.39,0,0,1,1.8,2.44l11.12-4.71V159l-10.6,4.5v1.22h10.6Zm-23.91-3.42h9.89v-2.21a3,3,0,0,0-.87-2.13,3.25,3.25,0,0,0-1-.67,2.73,2.73,0,0,0-1.15-.24h-3.9a2.65,2.65,0,0,0-1.11.24,3.21,3.21,0,0,0-1.64,1.64,2.75,2.75,0,0,0-.24,1.15Z"/><path class="cls-2" d="M129.66,148.9a5.22,5.22,0,0,1-.43,2.1,5.39,5.39,0,0,1-2.86,2.86,5.21,5.21,0,0,1-2.1.43H109.58a5.22,5.22,0,0,1-2.1-.43,5.39,5.39,0,0,1-2.86-2.86,5.22,5.22,0,0,1-.43-2.1,5.1,5.1,0,0,1,.43-2.08,5.55,5.55,0,0,1,1.15-1.69,5.49,5.49,0,0,1,1.71-1.15,5.23,5.23,0,0,1,2.1-.43h14.69a5.23,5.23,0,0,1,2.1.43,5.48,5.48,0,0,1,1.71,1.15,5.53,5.53,0,0,1,1.15,1.69A5.1,5.1,0,0,1,129.66,148.9Zm-24.24,0a4,4,0,0,0,.34,1.62,4.28,4.28,0,0,0,.89,1.32,4.36,4.36,0,0,0,1.3.89,3.86,3.86,0,0,0,1.6.33h14.71a4,4,0,0,0,1.62-.33,4.2,4.2,0,0,0,2.22-2.21,4,4,0,0,0,.34-1.62,3.84,3.84,0,0,0-.34-1.6,4.34,4.34,0,0,0-.89-1.3,4.29,4.29,0,0,0-1.32-.89,4,4,0,0,0-1.62-.33H109.55a3.86,3.86,0,0,0-1.6.33,4.31,4.31,0,0,0-2.2,2.19A3.85,3.85,0,0,0,105.42,148.9Z"/><path class="cls-2" d="M124.27,155.39H109.58a6.36,6.36,0,0,1-2.53-.52,6.5,6.5,0,0,1-3.44-3.44,6.32,6.32,0,0,1-.52-2.54,6.22,6.22,0,0,1,.52-2.53,6.69,6.69,0,0,1,1.38-2A6.6,6.6,0,0,1,107,143a6.34,6.34,0,0,1,2.54-.52h14.69a6.33,6.33,0,0,1,2.54.52,6.56,6.56,0,0,1,2.05,1.38,6.65,6.65,0,0,1,1.38,2,6.22,6.22,0,0,1,.52,2.53,6.32,6.32,0,0,1-.52,2.54,6.52,6.52,0,0,1-3.43,3.43A6.38,6.38,0,0,1,124.27,155.39Zm-14.72-9.52a2.75,2.75,0,0,0-1.15.24,3.2,3.2,0,0,0-1.65,1.64,2.74,2.74,0,0,0-.24,1.15,2.87,2.87,0,0,0,.24,1.18,3.19,3.19,0,0,0,.67,1,3.25,3.25,0,0,0,1,.67,2.74,2.74,0,0,0,1.15.24h14.71a2.88,2.88,0,0,0,1.18-.24,3.21,3.21,0,0,0,1-.66,3.16,3.16,0,0,0,.66-1,2.84,2.84,0,0,0,.24-1.18,2.74,2.74,0,0,0-.24-1.15,3.29,3.29,0,0,0-.67-1,3.21,3.21,0,0,0-1-.66,2.88,2.88,0,0,0-1.18-.24Z"/><path class="cls-2" d="M128.25,131.76h1.23v9.18H104.34v-1.23h23.91Z"/><polygon class="cls-2" points="130.57 142.04 103.24 142.04 103.24 138.62 127.15 138.62 127.15 130.66 130.57 130.66 130.57 142.04"/><path class="cls-1" d="M176.66,217.84l-6.05-27.3h-25l-6.05,27.3h-4.38l19.32-87.05h7.21L181,217.84Zm-30.13-31.55H169.7l-11.59-52Z"/><path class="cls-1" d="M222,130.79v87.05h-4.25l-27.3-75.21v75.21h-4.25V130.79h4.25L217.74,206V130.79Z"/><path class="cls-1" d="M232.29,217.84V130.79h4.25v87.05Z"/><path class="cls-1" d="M297.19,130.79v87.05h-4.25V142.89L271.43,202,249.8,142.89v74.95h-4.25V130.79h4.38l21.51,58.72,21.38-58.72Z"/><path class="cls-1" d="M345.09,217.84,339,190.54h-25L308,217.84h-4.38l19.32-87.05h7.21l19.32,87.05ZM315,186.29h23.18l-11.59-52Z"/><path class="cls-1" d="M386.43,213.59v4.25H354.62V130.79h4.25v82.8Z"/><polygon class="cls-3" points="10.08 87.4 19.7 81.2 9.13 77.25 10.08 87.4"/><polygon class="cls-4" points="17.21 4.55 12.48 9.94 9.56 19.15 21.6 17.94 26.14 16.4 17.21 4.55"/><polyline class="cls-5" points="89 53.01 82.02 62.12 64.32 62.12 68.63 67.66 88.47 62.88 89.94 53.4"/><polygon class="cls-6" points="54.17 34.16 49.24 41.55 64.32 62.17 54.17 34.16"/><polygon class="cls-7" points="44.63 36.47 49.24 41.55 54.17 34.16 44.63 36.47"/><polygon class="cls-8" points="49.24 23.24 44.63 36.47 54.17 34.16 49.24 23.24"/><polygon class="cls-9" points="44.63 15.48 44.63 36.47 49.24 23.24 44.63 15.48"/><polygon class="cls-10" points="40.63 10 38.47 15.48 44.63 25.08 44.63 15.48 40.63 10"/><polygon class="cls-11" points="36.47 5.39 38.47 15.48 40.63 10 36.47 5.39"/><polygon class="cls-12" points="31.7 9.39 38.47 15.48 36.47 5.39 31.7 9.39"/><polygon class="cls-13" points="28.78 0 25.7 11.85 36.47 5.39 28.78 0"/><polygon class="cls-14" points="38.47 15.48 30.47 15.48 25.7 11.85 32.09 8.02 38.47 15.48"/><polygon class="cls-15" points="32.09 19.85 38.47 15.48 30.47 15.48 32.09 19.85"/><polygon class="cls-16" points="35.85 25.08 38.47 15.48 32.09 19.85 35.85 25.08"/><polygon class="cls-17" points="44.63 25.08 35.85 25.08 38.47 15.48 44.63 25.08"/><polygon class="cls-18" points="44.63 36.47 39.24 33.09 44.63 25.08 44.63 36.47"/><polygon class="cls-19" points="35.85 25.08 39.24 33.09 44.63 25.08 35.85 25.08"/><polygon class="cls-20" points="27.7 26.78 32.09 19.85 35.85 25.08 27.7 26.78"/><polygon class="cls-21" points="39.24 33.09 27.7 26.78 35.85 25.08 39.24 33.09"/><polygon class="cls-22" points="35.85 37.86 39.24 33.09 34.79 29.85 35.85 37.86"/><polygon class="cls-23" points="28.62 34.16 33.47 33.09 34.79 29.85 27.7 26.78 28.62 34.16"/><polygon class="cls-21" points="35.85 37.86 28.62 34.16 34.79 29.85 35.85 37.86"/><polygon class="cls-24" points="24.47 40.93 32.24 40.32 28.62 34.16 24.47 40.93"/><polygon class="cls-25" points="35.85 37.86 28.62 34.16 32.24 40.32 35.85 37.86"/><polygon class="cls-24" points="38.47 45.55 35.85 37.86 32.24 40.32 38.47 45.55"/><polygon class="cls-26" points="43.09 40.93 35.85 37.86 44.63 36.47 43.09 40.93"/><polygon class="cls-21" points="39.24 33.09 35.85 37.86 44.63 36.47 39.24 33.09"/><polygon class="cls-16" points="43.09 40.93 38.47 45.55 35.85 37.86 43.09 40.93"/><path class="cls-27" d="M44.63,36.47l3.23,7.08-5.92-3.11S44.63,37.23,44.63,36.47Z"/><polygon class="cls-28" points="49.24 41.55 44.63 36.47 47.86 43.55 49.24 41.55"/><polygon class="cls-23" points="43.86 48.17 47.86 43.55 41.93 40.44 43.86 48.17"/><polygon class="cls-21" points="38.47 45.55 43.86 48.17 41.93 40.44 38.47 45.55"/><polygon class="cls-26" points="32.24 49.7 32.24 40.32 38.47 45.55 32.24 49.7"/><polygon class="cls-20" points="24.47 40.93 32.24 49.7 32.24 40.32 24.47 40.93"/><polygon class="cls-29" points="24.47 50.62 24.47 40.93 32.24 49.7 24.47 50.62"/><polygon class="cls-30" points="17.85 49.08 24.47 40.93 24.47 50.62 17.85 49.08"/><polygon class="cls-31" points="11.23 41.55 24.47 40.93 17.85 49.08 11.23 41.55"/><polygon class="cls-31" points="19.7 30.47 11.23 41.55 24.47 40.93 19.7 30.47"/><polygon class="cls-26" points="28.62 34.16 24.47 40.93 19.7 30.47 28.62 34.16"/><polygon class="cls-24" points="27.7 26.78 19.7 30.47 28.62 34.16 27.7 26.78"/><polygon class="cls-21" points="25.08 18.77 19.7 30.47 27.7 26.78 25.08 18.77"/><polygon class="cls-32" points="32.09 19.85 25.08 18.77 27.7 26.78 32.09 19.85"/><polygon class="cls-31" points="30.47 15.48 25.08 18.77 32.09 19.85 30.47 15.48"/><polygon class="cls-33" points="21.16 13.39 25.08 19.85 30.47 15.48 25.7 11.85 21.16 13.39"/><polygon class="cls-34" points="15.23 18.77 25.08 19.85 21.16 13.39 15.23 18.77"/><polygon class="cls-35" points="12.77 31.23 19.7 30.47 25.08 19.85 15.23 18.77 12.77 31.23"/><polygon class="cls-36" points="11.23 41.55 12.77 31.23 19.7 30.47 11.23 41.55"/><polygon class="cls-37" points="2.46 34.16 11.23 41.55 12.77 31.23 2.46 34.16"/><polygon class="cls-38" points="15.23 18.77 6 23.31 2.46 34.16 12.77 31.23 15.23 18.77"/><polygon class="cls-19" points="0 33.09 4.94 33.46 6 23.31 0 33.09"/><polygon class="cls-39" points="8.85 15.48 6 23.31 15.23 18.77 8.85 15.48"/><polygon class="cls-40" points="21.16 13.39 15.23 10.43 15.23 18.77 21.16 13.39"/><polygon class="cls-41" points="8.85 15.48 15.23 10.43 15.23 18.77 8.85 15.48"/><polygon class="cls-12" points="6 13.39 3.36 27.62 8.85 15.48 6 13.39"/><polygon class="cls-42" points="0 33.09 0.77 24.62 6 13.39 4.37 25.97 0 33.09"/><polygon class="cls-43" points="28.78 0 17.27 0.73 25.7 11.85 28.78 0"/><polygon class="cls-9" points="6 13.39 12.04 5.39 8.85 15.48 6 13.39"/><polygon class="cls-44" points="0 43.55 0 33.09 4.16 33.46 4.16 41.7 0 43.55"/><polygon class="cls-45" points="11.23 41.55 3.36 41.55 4.16 33.46 11.23 41.55"/><polygon class="cls-46" points="0 43.55 4.16 51.39 11.23 41.55 3.36 41.55 0 43.55"/><polygon class="cls-47" points="2.08 54.28 4.16 51.39 0 43.55 2.08 54.28"/><polygon class="cls-48" points="12.04 53.4 4.16 51.39 11.23 41.55 12.04 53.4"/><polygon class="cls-49" points="17.85 49.08 11.23 41.55 12.04 53.4 17.85 49.08"/><polygon class="cls-50" points="2.08 54.28 7.3 61.25 4.16 51.39 2.08 54.28"/><polygon class="cls-51" points="12.9 53.01 4.16 51.39 7.3 61.25 12.9 53.01"/><polygon class="cls-52" points="1.23 67.7 7.3 61.25 2.08 54.28 1.23 67.7"/><polygon class="cls-49" points="5.62 69.56 1.33 66.17 1.33 76.48 5.62 69.56"/><polygon class="cls-53" points="7.3 61.25 8.85 69.86 5.62 69.56 7.3 61.25"/><polygon class="cls-54" points="2.1 66.78 7.3 61.25 5.62 69.56 2.1 66.78"/><polygon class="cls-55" points="12.77 63.99 12.04 53.4 7.3 61.25 12.77 63.99"/><polygon class="cls-17" points="8.85 69.86 12.77 63.99 7.3 61.25 8.85 69.86"/><polygon class="cls-56" points="21.16 59.16 12.04 53.4 12.77 63.99 21.16 59.16"/><polygon class="cls-57" points="17.85 49.08 21.16 59.16 12.04 53.4 17.85 49.08"/><polygon class="cls-58" points="24.47 50.62 17.85 49.08 21.16 59.16 24.47 50.62"/><polygon class="cls-21" points="30.47 58.69 24.47 50.62 33.17 49.08 30.47 58.69"/><polygon class="cls-34" points="21.16 59.16 24.47 50.62 30.47 58.69 21.16 59.16"/><polygon class="cls-34" points="25.08 66.17 30.47 58.69 21.16 59.16 25.08 66.17"/><polygon class="cls-59" points="18.93 69.86 21.16 59.16 12.77 63.99 18.93 69.86"/><polygon class="cls-58" points="25.08 66.17 18.93 69.86 21.16 59.16 25.08 66.17"/><polygon class="cls-38" points="14.54 76.48 12.77 63.99 8.85 69.86 14.54 76.48"/><polygon class="cls-60" points="18.93 69.86 12.77 63.99 14.54 76.48 18.93 69.86"/><polygon class="cls-61" points="25.81 75.56 18.93 69.86 14.54 76.48 25.81 75.56"/><polygon class="cls-16" points="25.08 66.17 18.93 69.86 25.81 75.56 25.08 66.17"/><polygon class="cls-62" points="31.7 70.23 25.08 66.17 25.81 75.56 31.7 70.23"/><polygon class="cls-63" points="34.47 62.93 25.08 66.17 31.7 70.23 34.47 62.93"/><polygon class="cls-32" points="30.47 58.69 34.47 62.93 25.08 66.17 30.47 58.69"/><polygon class="cls-21" points="37.24 58.69 30.47 58.69 34.47 62.93 37.24 58.69"/><polygon class="cls-32" points="33.17 49.08 37.24 58.69 30.47 58.69 33.17 49.08"/><polygon class="cls-20" points="38.47 45.55 37.24 58.69 33.17 49.08 38.47 45.55"/><polygon class="cls-20" points="43.86 48.17 43.09 56.32 37.24 58.69 38.47 45.55 43.09 47.79 43.86 48.17"/><polygon class="cls-64" points="47.86 43.55 47.86 52.78 43.09 56.32 43.86 48.17 47.86 43.55"/><polygon class="cls-5" points="49.24 41.55 64.32 62.17 46.94 52.12 47.86 43.55 49.24 41.55"/><polygon class="cls-41" points="47.86 66.17 50.67 54.28 47.86 52.78 43.09 56.32 43.09 63.99 47.86 66.17"/><polygon class="cls-65" points="37.24 58.69 33.85 63.15 43.09 63.99 43.09 56.32 37.24 58.69"/><polygon class="cls-66" points="31.7 70.23 36.47 70.23 37.24 66.58 33.85 63.15 31.7 70.23"/><polygon class="cls-24" points="43.09 63.99 33.85 63.15 37.24 67.7 43.09 63.99"/><polygon class="cls-67" points="47.86 66.17 44.63 69.86 37.24 67.7 43.09 63.99 47.86 66.17"/><polygon class="cls-19" points="38.47 75.56 37.24 67.7 44.63 69.86 38.47 75.56"/><polygon class="cls-48" points="33.47 79.75 37.24 67.7 38.55 76.48 33.47 79.75"/><polygon class="cls-68" points="31.7 70.23 33.47 79.75 36.47 70.23 31.7 70.23"/><polygon class="cls-66" points="25.81 75.56 31.7 70.23 33.47 79.75 25.81 75.56"/><polygon class="cls-15" points="22.77 84.02 14.54 76.48 25.81 75.56 22.77 84.02"/><polygon class="cls-69" points="29.64 83.25 25.81 75.56 22.77 84.02 29.64 83.25"/><polygon class="cls-23" points="33.47 79.75 25.81 75.56 29.64 83.25 33.47 79.75"/><polygon class="cls-23" points="1.33 76.48 9.13 77.25 5.62 69.56 1.33 76.48"/><polygon class="cls-24" points="14.54 76.48 9.13 77.25 5.62 69.56 8.85 69.86 14.54 76.48"/><polygon class="cls-70" points="10.08 87.4 9.13 77.25 1.33 76.48 10.08 87.4"/><polygon class="cls-24" points="14.54 83.25 9.13 77.25 14.54 76.48 14.54 83.25"/><polygon class="cls-71" points="22.77 84.02 14.54 76.48 17.85 94.33 22.77 84.02"/><polygon class="cls-38" points="29.64 83.25 22.77 84.02 17.85 94.33 29.64 83.25"/><polygon class="cls-24" points="9.13 77.25 10.03 88.18 15.23 83.25 9.13 77.25"/><polygon class="cls-10" points="17.85 94.33 14.54 76.48 10.08 87.4 17.85 94.33"/><polygon class="cls-72" points="6.1 94.98 1.33 76.48 10.08 87.4 6.1 94.98"/><polygon class="cls-73" points="2.1 94.98 1.23 74.3 6.78 96.25 2.08 96.25 2.1 94.98"/><polygon class="cls-74" points="6.33 106.52 17.85 94.33 10.08 87.4 2.08 96.25 6.33 106.52"/><polygon class="cls-6" points="64.32 62.17 47.86 66.17 50.67 54.28 64.32 62.17"/><polygon class="cls-75" points="62.63 79.41 64.32 62.17 47.86 66.17 62.63 79.41"/><polygon class="cls-6" points="68.63 67.7 64.32 62.17 62.63 79.41 68.63 67.7"/><polygon class="cls-8" points="44.22 69.86 47.45 81.25 62.23 79.41 47.45 66.17 45.39 68.53 44.22 69.86"/><polygon class="cls-76" points="38.47 75.56 44.63 69.86 47.86 81.25 38.47 75.56"/><polygon class="cls-73" points="62.63 79.41 53.63 102.33 47.86 81.25 62.63 79.41"/><polygon class="cls-6" points="69.4 86.51 88.47 62.93 68.63 67.7 62.63 79.41 69.4 86.51"/><polygon class="cls-77" points="53.63 102.33 69.4 86.51 62.63 79.41 53.63 102.33"/><polygon class="cls-42" points="74.17 107.56 75.15 79.41 69.4 86.51 74.17 107.56"/><polyline class="cls-73" points="88.47 82.71 75.05 82.33 75.15 79.41 88.47 62.93 88.47 82.71"/><polygon class="cls-73" points="74.17 107.56 88.47 82.71 75.05 82.33 74.17 107.56"/><polygon class="cls-78" points="39.47 97.04 38.33 74.99 47.86 81.25 53.63 102.33 39.47 97.04"/><polygon class="cls-75" points="42.55 111.72 53.63 102.33 39.47 97.04 42.55 111.72"/><polygon class="cls-6" points="50.67 115.51 53.63 102.33 60.63 116.18 50.67 115.51"/><polygon class="cls-6" points="42.55 111.72 53.63 102.33 50.67 115.51 42.55 111.72"/><polyline class="cls-6" points="88.47 82.71 74.77 97.04 88.48 107.56 88.47 82.71"/><polygon class="cls-6" points="75.2 124.82 61.52 133.66 56.87 123.51 75.2 124.82"/><polygon class="cls-73" points="50.67 115.51 56.78 124.03 60.63 116.18 50.67 115.51"/><polygon class="cls-73" points="74.25 124.74 60.71 115.66 56.87 123.51 74.25 124.74"/><polygon class="cls-79" points="8.1 110.79 14.41 131.3 18.66 108.72 8.1 110.79"/><polygon class="cls-77" points="17.85 94.33 8.1 110.79 18.66 108.72 17.85 94.33"/><polygon class="cls-75" points="27.7 99.1 17.85 94.33 18.66 108.72 27.7 99.1"/><polygon class="cls-80" points="24.96 87.65 17.85 94.33 27.7 99.1 24.96 87.65"/><polygon class="cls-81" points="39.47 97.04 29.64 83.25 22.37 90.08 39.47 97.04"/><polygon class="cls-44" points="27.7 99.1 22.37 90.08 39.47 97.04 27.7 99.1"/><polygon class="cls-82" points="38.33 74.99 29.64 83.25 39.47 97.04 38.33 74.99"/><polygon class="cls-42" points="42.55 111.72 33.85 110.97 39.47 97.04 42.55 111.72"/><polygon class="cls-44" points="27.7 99.1 39.47 97.04 33.85 110.97 25.08 104.38 27.7 99.1"/><polygon class="cls-83" points="25.08 122.19 33.85 110.97 27.7 99.1 18.66 108.72 25.08 122.19"/><polygon class="cls-73" points="14.41 131.3 25.08 122.19 18.66 108.72 14.41 131.3"/><polygon class="cls-73" points="26.26 134.34 14.41 131.3 25.08 122.19 26.26 134.34"/><polygon class="cls-79" points="33.85 110.97 33.85 125.39 26.26 134.34 25.08 122.19 33.85 110.97"/><polygon class="cls-8" points="39.47 116.41 33.17 120.01 33.85 110.97 39.47 116.41"/><polygon class="cls-84" points="47.86 116.41 42.39 110.97 33.85 110.97 39.47 116.41 47.86 116.41"/><polygon class="cls-85" points="56.78 123.39 50.67 115.51 42.55 111.72 49.67 119.77 56.78 123.39"/><polygon class="cls-73" points="61.52 133.66 56.78 131.76 56.78 123.39 61.52 133.66"/><polygon class="cls-86" points="52.78 127.11 56.78 123.39 56.78 131.76 52.78 127.11"/><polygon class="cls-75" points="49.67 119.77 52.78 127.11 56.78 123.39 49.67 119.77"/><polygon class="cls-6" points="41.8 119.77 49.67 119.77 52.78 127.11 41.8 119.77"/><polygon class="cls-73" points="33.17 125.88 46.55 116.41 39.47 116.41 33.17 120.01 33.17 125.88"/><polygon class="cls-87" points="29.78 130.03 34.74 133.4 34.43 124.47 29.78 130.03"/><polygon class="cls-88" points="46.9 115.83 41.8 119.77 49.67 119.77 46.9 115.83"/><polygon class="cls-86" points="44.2 127.11 40.86 120.01 41.8 119.77 45.47 121.06 44.2 127.11"/><polygon class="cls-86" points="34.09 132.8 39.47 126.45 38.2 122.19 34.09 125.23 34.09 132.8"/><polygon class="cls-89" points="43.86 125.26 39.47 126.45 38.2 122.19 40.86 120.01 43.86 125.26"/><polygon class="cls-75" points="52.78 127.11 45.47 121.06 43.86 125.26 44.63 127.11 52.78 127.11"/><polygon class="cls-79" points="34.09 132.8 43.86 127.11 43.86 125.26 39.47 126.45 34.09 132.8"/><polygon class="cls-6" points="41.8 136.49 34.09 132.8 44.06 124.74 52.78 127.11 52.78 135.8 48.86 133.9 41.8 136.49"/><polygon class="cls-86" points="41.8 139.88 41.8 136.49 49.67 132.8 52.78 135.8 41.8 139.88"/><polygon class="cls-90" points="34.09 132.8 41.8 139.88 41.8 136.49 34.09 132.8"/><polygon class="cls-73" points="26.26 134.34 29.78 130.03 34.09 132.8 26.26 134.34"/><polygon class="cls-86" points="41.8 139.88 26.26 134.34 34.09 132.8 41.8 139.88"/><polygon class="cls-91" points="62.92 133.07 41.8 139.88 56.78 131.76 62.92 133.07"/><polygon class="cls-18" points="52.78 127.11 52.78 135.8 56.78 131.76 52.78 127.11"/><polygon class="cls-76" points="74.17 125.26 64.34 140.88 60.63 132.18 74.17 125.26"/><polygon class="cls-92" points="75.15 134.34 74.17 125.26 64.34 140.88 75.15 134.34"/><polygon class="cls-93" points="81.76 115.41 88.7 111.72 88.48 132.18 84.48 134.34 74.17 134.93 74.17 125.26 81.76 115.41"/><polyline class="cls-19" points="88.67 134.93 84.48 134.34 88.7 130.49 88.67 134.93 88.67 134.93"/><polygon class="cls-94" points="75.15 144.42 74.17 134.93 84.48 134.34 75.15 144.42"/><polyline class="cls-87" points="88.67 134.93 88.67 140.88 88.67 134.93 84.48 134.34 88.67 140.88"/><polygon class="cls-95" points="75.15 144.42 84.48 134.34 87 138.26 75.15 144.42"/><polyline class="cls-96" points="88.7 143.73 75.15 144.42 87 138.26 88.7 139.88 88.7 143.73"/><polygon class="cls-13" points="67.84 146.99 64.34 140.88 74.17 134.93 67.84 146.99"/><polygon class="cls-97" points="75.15 144.42 67.84 146.99 74.17 134.93 75.15 144.42"/><polygon class="cls-85" points="70.33 151.26 67.84 146.99 75.15 144.42 70.33 151.26"/><polygon class="cls-86" points="85.44 149.5 75.15 144.42 88.7 143.73 85.44 149.5"/><polygon class="cls-6" points="86.02 156.31 85.44 149.5 88.7 143.73 88.47 153.88 86.02 156.31"/><polygon class="cls-79" points="70.33 151.26 74.17 150.81 85.44 149.5 75.15 144.42 70.33 151.26"/><polygon class="cls-75" points="78.72 155.96 85.44 149.5 74.17 150.81 78.72 155.96"/><polygon class="cls-6" points="86.02 156.31 79.33 154.67 85.66 152.08 86.02 156.31"/><polygon class="cls-85" points="85.44 149.5 79.33 154.67 85.66 152.08 85.44 149.5"/><polyline class="cls-98" points="88.47 165.42 86.02 156.31 88.47 153.88 88.47 165.42"/><polygon class="cls-54" points="81.92 162.34 86.02 156.31 88.47 165.42 81.92 162.34"/><polygon class="cls-99" points="76.03 152.7 81.92 162.34 86.02 156.31 76.03 152.7"/><polygon class="cls-100" points="74.17 150.81 73.21 158.88 78.16 154.85 74.17 150.81"/><polygon class="cls-101" points="81.92 162.34 73.21 158.88 78.16 154.85 81.92 162.34"/><polygon class="cls-102" points="76.79 169.35 73.21 158.88 81.92 162.34 76.79 169.35"/><polygon class="cls-75" points="86.02 164.12 76.79 169.35 81.92 162.34 86.02 164.12"/><polyline class="cls-103" points="88.15 170.81 88.47 165.42 86.02 164.12 76.79 169.35 88.15 170.81"/><path class="cls-103" d="M79.33,155.21"/><polygon class="cls-104" points="73.21 158.88 62.63 155.73 70.33 151.26 73.21 158.88"/><polygon class="cls-105" points="74.17 150.81 70.33 151.26 73.21 158.88 74.17 150.81"/><polygon class="cls-48" points="58.32 148.96 70.33 151.26 62.63 155.73 58.32 148.96"/><polygon class="cls-100" points="67.84 146.99 58.32 148.96 70.33 151.26 67.84 146.99"/><polygon class="cls-106" points="64.34 140.88 58.32 148.96 67.84 146.99 64.34 140.88"/><polygon class="cls-107" points="52.78 142.19 58.32 148.96 64.34 140.88 52.78 142.19"/><polygon class="cls-76" points="60.63 133.78 52.78 142.19 64.34 140.88 60.63 132.18 60.63 133.78"/><polygon class="cls-92" points="41.8 139.88 60.63 133.78 52.78 142.19 41.8 140.49 41.8 139.88"/><polygon class="cls-73" points="44.63 152.08 52.78 142.19 41.8 139.88 44.63 152.08"/><polygon class="cls-73" points="41.8 139.88 44.63 152.08 34.47 157.92 41.8 139.88"/><polygon class="cls-73" points="48.09 155.07 44.63 151.26 34.47 157.92 40.01 164.57 48.09 155.07"/><polygon class="cls-67" points="34.47 157.92 40.01 164.57 30.47 173.42 34.47 157.92"/><polygon class="cls-6" points="25.81 162.34 26.26 146.99 35.39 142.63 34.47 157.92 25.81 162.34"/><polygon class="cls-75" points="41.8 139.88 34.47 157.92 35.39 142.63 41.8 139.88"/><polygon class="cls-73" points="26.26 134.34 35.39 142.63 41.8 139.88 26.26 134.34"/><polygon class="cls-6" points="16.97 146.61 26.26 134.34 35.39 142.63 26.26 146.99 16.97 146.61"/><polygon class="cls-77" points="14.41 131.3 26.26 134.34 16.97 146.61 14.41 131.3"/><polygon class="cls-73" points="9.96 147.96 15.85 157.92 16.97 146.61 14.41 130.49 9.96 147.96"/><polygon class="cls-73" points="12.18 160.87 9.96 147.96 15.85 157.92 12.18 160.87"/><polygon class="cls-75" points="28.31 146.01 16.97 146.61 15.85 157.92 28.31 146.01"/><polygon class="cls-79" points="25.81 162.34 15.85 157.92 26.26 147.84 25.81 162.34"/><polygon class="cls-108" points="12.18 160.87 25.81 162.34 15.85 157.92 12.18 160.87"/><polygon class="cls-67" points="15.08 176.58 12.18 160.87 22.16 171.44 15.08 176.58"/><polygon class="cls-109" points="25.81 162.34 12.18 160.87 22.16 171.44 25.81 162.34"/><polygon class="cls-110" points="34.47 157.92 33.9 158.17 25.08 162.02 30.47 173.42 34.47 157.92"/><polygon class="cls-111" points="22.16 171.44 25.08 162.02 30.47 173.42 22.16 171.44"/><polygon class="cls-112" points="48.09 155.07 52.78 142.19 44.63 151.26 48.09 155.07"/><polygon class="cls-113" points="55.09 157.15 48.09 155.07 52.78 142.19 55.09 157.15"/><polygon class="cls-112" points="58.32 148.96 52.78 142.19 55.09 157.15 58.32 148.96"/><polygon class="cls-64" points="62.63 155.73 55.09 157.15 58.32 148.96 62.63 155.73"/><polygon class="cls-93" points="73.21 158.88 61.52 169.35 62.63 155.73 73.21 158.88"/><polygon class="cls-114" points="76.79 169.35 61.52 169.35 73.21 158.88 76.79 169.35"/><polygon class="cls-115" points="55.09 157.15 61.52 169.35 62.63 155.73 55.09 157.15"/><polygon class="cls-12" points="49.67 171.44 55.09 157.15 61.52 169.35 49.67 171.44"/><polygon class="cls-116" points="40.01 164.57 49.67 171.44 48.09 155.07 40.01 164.57"/><polygon class="cls-117" points="55.09 157.15 48.09 155.07 49.67 171.44 55.09 157.15"/><polygon class="cls-118" points="76.79 169.35 71.5 171.44 61.52 169.35 76.79 169.35"/><polygon class="cls-4" points="49.67 171.44 64.34 181.96 61.52 169.35 49.67 171.44"/><polygon class="cls-119" points="71.5 171.44 61.52 169.35 64.34 182.2 71.5 171.44"/><polygon class="cls-73" points="76.79 169.35 74.17 181.12 71.5 171.44 76.79 169.35"/><polygon class="cls-120" points="72.25 190.16 64.34 181.96 71.5 171.44 74.17 181.12 72.25 190.16"/><polygon class="cls-121" points="40.01 164.57 34.47 189.43 30.47 173.42 40.01 164.57"/><polygon class="cls-122" points="22.16 171.44 34.47 189.43 30.47 173.42 22.16 171.44"/><polygon class="cls-123" points="40.01 164.57 45.98 185.89 34.47 189.43 40.01 164.57"/><polygon class="cls-124" points="49.67 171.44 45.98 185.89 40.01 164.57 49.67 171.44"/><polygon class="cls-125" points="64.34 181.96 45.98 185.89 49.67 171.44 64.34 181.96"/><polygon class="cls-48" points="63.08 198.35 58.56 183.2 45.98 185.89 63.08 198.35"/><polygon class="cls-126" points="64.34 181.96 58.56 183.2 63.08 198.35 64.34 181.96"/><polygon class="cls-127" points="72.25 190.16 64.34 181.96 63.54 192.35 72.25 190.16"/><polygon class="cls-128" points="63.08 198.35 72.6 198.08 72.25 190.16 63.54 192.35 63.08 198.35"/><polygon class="cls-129" points="74.17 181.12 77.89 183.2 72.25 190.16 74.17 181.12"/><polygon class="cls-130" points="83.87 178.66 76.79 169.35 74.17 181.12 77.89 183.2 83.87 178.66"/><polyline class="cls-86" points="88.15 170.81 76.79 169.35 83.87 178.66 88.15 170.81"/><polyline class="cls-86" points="87.93 174.5 83.87 178.66 88.15 170.81 87.93 174.5"/><polygon class="cls-85" points="82.67 187.16 83.87 178.66 77.89 183.2 82.67 187.16"/><polyline class="cls-73" points="87.93 174.5 87.72 184.32 87.93 174.5 83.87 178.66 82.67 187.16 87.72 184.32"/><polyline class="cls-131" points="87.72 193.13 72.25 190.16 77.89 183.2 82.67 187.16 87.72 184.32 87.72 193.13"/><polygon class="cls-132" points="72.28 197.81 87.72 193.13 72.25 190.16 72.28 197.81"/><polygon class="cls-133" points="79.98 201.28 72.28 197.81 81.03 195.16 79.98 201.28"/><polyline class="cls-134" points="88.17 192.59 81.03 195.16 79.66 202.7 89 202.14 87.72 193.13"/><polyline class="cls-135" points="88.15 213.56 79.66 201.94 88.02 201.51 88.15 213.56"/><polyline class="cls-136" points="88.15 213.56 68.94 206.63 80.25 201.65 88.15 213.56"/><polygon class="cls-137" points="56.24 213.32 68.94 206.63 88.15 213.56 74.14 214.32 56.24 213.32"/><polygon class="cls-138" points="34.47 189.43 34.73 190.16 38.14 199.61 45.98 185.89 34.47 189.43"/><polygon class="cls-139" points="56.24 213.32 44.84 209.63 52.89 204.35 56.24 213.32"/><polygon class="cls-140" points="38.14 199.61 44.84 209.63 45.98 185.89 38.14 199.61"/><polygon class="cls-141" points="52.89 204.35 45.98 185.89 44.84 209.63 52.89 204.35"/><polygon class="cls-142" points="27.7 199.42 44.84 209.63 38.14 199.61 27.7 199.42"/><polygon class="cls-122" points="22.16 171.44 23.54 191.88 34.47 189.43 22.16 171.44"/><polygon class="cls-112" points="34.47 189.43 23.54 191.88 38.14 199.61 34.47 189.43"/><polygon class="cls-143" points="22.16 171.44 27.7 199.42 15.08 176.58 22.16 171.44"/><path class="cls-78" d="M61.25,54.68l3.05,8.46H82.16L89,53S77.13,50.86,61.25,54.68Z"/><path class="cls-144" d="M11.83,100.56"/><polygon class="cls-140" points="38.14 199.61 26.52 193.46 27.7 199.42 38.14 199.61"/><path class="cls-137" d="M73.85,215"/><polygon class="cls-145" points="81.92 200.84 56.24 213.32 72.28 197.81 81.92 200.84"/><polygon class="cls-68" points="45.98 185.89 56.24 213.32 63.08 198.35 45.98 185.89"/><polygon class="cls-146" points="72.28 197.81 56.24 213.32 63.08 198.35 72.28 197.81"/><polygon class="cls-126" points="88.15 213.56 56.24 213.32 64.48 215.46 88.15 213.56"/><polygon class="cls-120" points="88.58 216.93 88.15 213.56 75.45 216.85 88.58 216.93"/><polygon class="cls-126" points="64.48 215.46 75.45 216.85 88.15 213.56 64.48 215.46"/><polygon class="cls-13" points="74.17 125.26 76.92 109.26 74.77 106.52 74.17 125.26"/><polygon class="cls-43" points="8.85 15.48 11.7 13.39 12.48 9.94 17.21 4.55 23.31 12.65 25.7 11.85 17.27 0.73 11.7 4.55 8.85 15.48"/><polygon class="cls-79" points="8.1 110.79 9.96 147.96 14.41 131.3 8.1 110.79"/><polygon class="cls-79" points="12.18 160.87 2.53 153.25 9.35 135.8 12.18 160.87"/><polygon class="cls-83" points="6.33 106.52 2.53 119.46 9.35 135.8 8.1 110.79 6.33 106.52"/><polygon class="cls-147" points="2.53 153.25 1.23 140.73 9.35 135.8 2.53 153.25"/><polygon class="cls-109" points="2.53 119.46 1.23 140.73 9.35 135.8 2.53 119.46"/><polygon class="cls-122" points="27.7 199.42 18.98 190.16 19.75 185.02 27.7 199.42"/><polygon class="cls-122" points="15.08 176.58 18.98 190.16 19.75 185.02 15.08 176.58"/><polygon class="cls-124" points="12.18 160.87 9.96 175.62 18.98 190.16 12.18 160.87"/><polyline class="cls-73" points="75.13 107.04 81.76 115.41 88.7 111.72 88.48 107.56 75.05 97.25 75.05 106.52"/><polygon class="cls-6" points="53.63 102.33 75.05 107.56 75.55 76.71 53.63 102.33"/><polygon class="cls-148" points="74.25 124.74 75.13 107.04 60.71 115.66 74.25 124.74"/><polygon class="cls-73" points="60.63 116.18 75.05 107.56 53.63 102.33 60.63 116.18"/><polygon class="cls-148" points="74.17 125.26 81.76 115.41 75.05 99.94 74.17 125.26"/><polygon class="cls-149" points="453.12 187.66 468.35 168.22 450.39 182.78 453.12 187.66"/><path class="cls-150" d="M429.57,55.29A208.49,208.49,0,0,0,398,53.8C383,54.49,429.57,55.29,429.57,55.29Z"/><path class="cls-89" d="M410.15,212.12"/><path class="cls-132" d="M421.3,139.47,415,134l7.93-16.4s8.29-3,13.12-2.36,10.68,3.66,10.68,4.88,1,15.33-11.56,17.78-13.92,1.6-13.92,1.6L415,134l6.26,5.49L415,134h0"/><path class="cls-151" d="M432,137.5s-10.29-1.16-9.61-11,10.22-9.27,10.22-9.27a9.76,9.76,0,0,1,9.31,6.24C444.82,130.17,440.4,138.26,432,137.5Z"/><path class="cls-152" d="M422.9,130.79s4.37-7.05,9.86-7,9.59,7,9.59,7,3.82-13.54-9.5-13.6C419.33,117.14,422.9,130.79,422.9,130.79Z"/><path class="cls-132" d="M432.35,135.93s-2.87-5.07-2.59-8.62,2-8.45,2.59-8.5,3.06,6.28,3,8.93C435.19,130.55,433.73,136,432.35,135.93Z"/><polygon class="cls-63" points="410.93 211.16 432.53 202.99 414.75 200.17 410.93 211.16"/><polygon class="cls-33" points="453.12 187.66 414.75 200.17 432.53 202.99 453.12 187.66"/><polygon class="cls-63" points="397.19 212.12 414.75 200.17 396.76 201.9 397.19 212.12"/><polygon class="cls-153" points="414.75 200.17 418.41 185.68 396.44 191.32 414.75 200.17"/><polygon class="cls-153" points="418.41 185.68 396.44 177.29 410.93 164.77 418.41 185.68"/><polygon class="cls-154" points="418.41 185.68 396.44 177.29 404.29 189.44 418.41 185.68"/><polygon class="cls-155" points="418.41 185.68 427.56 188.42 414.75 200.17 418.41 185.68"/><polygon class="cls-125" points="445.26 173.62 418.41 185.68 427.56 188.42 445.26 173.62"/><polygon class="cls-125" points="453.12 187.66 427.56 188.42 414.75 200.17 453.12 187.66"/><polygon class="cls-156" points="407.81 150.58 397.19 164.62 401.02 165.69 404.29 162.64 407.81 150.58"/><polygon class="cls-157" points="397.19 164.62 401.02 165.69 404.29 162.64 410.93 164.77 396.44 177.29 397.19 164.62"/><path class="cls-158" d="M400.68,173.62V170l3.61-2.42s3.1.29,2.46.84Z"/><polygon class="cls-149" points="397.41 129.99 397.19 164.62 407.81 150.58 397.41 129.99"/><polygon class="cls-159" points="415.36 139.83 407.81 150.13 410.75 164.8 415.36 139.83"/><polygon class="cls-160" points="397.41 129.99 407.81 150.58 414.75 141.58 405.29 135.25 397.41 129.99"/><polygon class="cls-161" points="415.36 133.8 415.04 142.01 405.29 135.25 415.36 133.8"/><polygon class="cls-162" points="397.41 129.99 410.32 116.71 405.29 135.25 397.41 129.99"/><polygon class="cls-163" points="415.36 133.8 410.32 116.71 405.29 135.25 415.36 133.8"/><polygon class="cls-164" points="397.19 68.65 397.2 100.08 411.28 67.73 397.19 68.65"/><polygon class="cls-165" points="414.75 52.93 398.03 52.93 411.28 67.73 414.75 52.93"/><polygon class="cls-150" points="397.2 100.08 411.28 67.73 419.33 81.16 397.2 100.08"/><polygon class="cls-166" points="414.02 102.11 419.33 81.16 397.2 100.08 414.02 102.11"/><polygon class="cls-151" points="410.32 116.71 414.02 102.11 397.2 100.08 410.32 116.71"/><polygon class="cls-167" points="414.75 52.93 421.62 63 411.28 67.73 414.75 52.93"/><polygon class="cls-168" points="429.57 55.2 421.62 63 414.75 52.93 429.57 55.2"/><polygon class="cls-132" points="419.33 81.16 411.28 67.73 421.62 63 419.33 81.16"/><polygon class="cls-169" points="420.57 109 410.32 116.71 419.33 81.16 420.57 109"/><polygon class="cls-153" points="431.23 101 410.32 116.71 415.36 133.8 431.23 101"/><polygon class="cls-168" points="419.33 81.16 431.23 101 420.57 109 419.33 81.16"/><polygon class="cls-170" points="448.01 72.08 419.33 81.16 421.62 63 448.01 72.08"/><polygon class="cls-171" points="445.42 39.66 421.62 63 428.27 65.3 445.42 39.66"/><polygon class="cls-168" points="448.01 72.08 434.48 56.02 428.27 65.3 448.01 72.08"/><polygon class="cls-167" points="445.42 39.66 448.01 72.08 434.48 56.02 445.42 39.66"/><polygon class="cls-172" points="469.52 50.8 457.32 36.76 448.01 72.08 469.52 50.8"/><polygon class="cls-173" points="446.19 49.27 457.32 36.76 448.01 72.08 446.19 49.27"/><polygon class="cls-174" points="445.42 39.66 457.32 36.76 446.19 49.27 445.42 39.66"/><polygon class="cls-150" points="463.88 20.28 445.42 39.66 457.32 36.76 463.88 20.28"/><polygon class="cls-161" points="473.32 21.55 466.82 17.64 463.88 20.28 473.32 21.55"/><polygon class="cls-175" points="457.32 36.76 473.32 21.55 463.88 20.28 457.32 36.76"/><polygon class="cls-176" points="485.3 30.58 476.16 21.55 457.32 36.76 485.3 30.58"/><polygon class="cls-177" points="469.52 50.8 457.32 36.76 485.3 30.58 469.52 50.8"/><polygon class="cls-178" points="482.79 54.42 485.3 30.58 469.52 50.8 482.79 54.42"/><polygon class="cls-149" points="473.8 76.43 469.52 50.8 482.79 54.42 473.8 76.43"/><polygon class="cls-178" points="448.01 72.08 469.52 50.8 473.8 76.43 448.01 72.08"/><polygon class="cls-149" points="469.52 87.26 473.8 76.43 448.01 72.08 469.52 87.26"/><polygon class="cls-179" points="451.75 101 448.01 72.08 419.33 81.16 451.75 101"/><polygon class="cls-179" points="469.52 87.26 451.75 101 466.55 101 469.52 87.26"/><polygon class="cls-176" points="482.79 54.42 474.27 95.48 469.52 87.26 482.79 54.42"/><polygon class="cls-162" points="481.73 151.96 480.1 108.8 477.46 140.29 481.73 151.96"/><polygon class="cls-180" points="466.55 101 474.27 95.48 469.52 87.26 466.55 101"/><polygon class="cls-181" points="480.1 108.8 474.27 95.48 466.55 101 480.1 108.8"/><polygon class="cls-162" points="477.46 140.28 480.1 108.8 466.55 101 477.46 140.28"/><polygon class="cls-162" points="431.23 101 435.54 91.08 419.33 81.16 431.23 101"/><polygon class="cls-174" points="451.75 101 435.54 91.08 431.23 101 451.75 101"/><path class="cls-172" d="M431.23,101l15.87,18.92a21.26,21.26,0,0,0-5.85-4.27c-3.3-1.53-7-2.14-9.1-1.53s-8.85,3.28-8.85,3.28Z"/><polygon class="cls-175" points="452.44 101 447.1 119.92 431.23 101 452.44 101"/><polygon class="cls-182" points="464.49 119.92 447.1 119.92 452.44 101 464.49 119.92"/><polygon class="cls-150" points="448.01 72.08 451.75 101 469.52 87.26 448.01 72.08"/><polygon class="cls-183" points="466.55 101 452.44 101 477.46 140.28 466.55 101"/><polygon class="cls-159" points="466.55 137.69 477.46 140.28 468.35 125.98 466.55 137.69"/><polygon class="cls-184" points="460.98 124.8 468.35 125.98 466.55 137.69 460.98 124.8"/><polygon class="cls-132" points="447.1 119.92 460.98 124.8 468.35 125.98 464.49 119.92 447.1 119.92"/><polygon class="cls-185" points="447.1 137.69 447.1 119.92 460.98 124.8 447.1 137.69"/><polygon class="cls-186" points="451.75 155.01 460.98 124.8 447.1 137.69 451.75 155.01"/><polygon class="cls-149" points="466.55 137.69 451.75 155.01 460.98 124.8 466.55 137.69"/><polygon class="cls-187" points="477.46 140.28 466.55 137.69 451.75 155.01 477.46 140.28"/><polyline class="cls-188" points="468.35 168.22 477.46 140.28 451.75 155.01 474.28 161.01"/><polygon class="cls-187" points="468.35 168.22 481.73 151.96 477.46 140.28 468.35 168.22"/><polygon class="cls-136" points="451.75 155.01 468.35 168.22 475.22 159.87 451.75 155.01"/><polygon class="cls-149" points="460.98 181.02 468.35 168.22 445.26 173.62 460.98 181.02"/><polygon class="cls-186" points="450.39 182.78 460.98 181.02 445.26 173.62 450.39 182.78"/><polygon class="cls-189" points="451.75 155.01 445.26 173.62 468.35 168.22 451.75 155.01"/><polygon class="cls-190" points="435.19 161.57 451.75 155.01 445.26 173.62 435.19 161.57"/><polygon class="cls-188" points="432.6 146.35 435.19 161.57 451.75 155.01 432.6 146.35"/><polygon class="cls-136" points="447.1 137.69 432.6 146.35 451.75 155.01 447.1 137.69"/><polygon class="cls-151" points="421.62 139.29 447.1 137.69 432.6 146.35 421.62 139.29"/><polygon class="cls-158" points="415.36 133.8 414.75 141.58 421.62 139.29 415.36 133.8"/><polygon class="cls-183" points="419.33 148.3 414.75 141.58 421.62 139.29 419.33 148.3"/><polygon class="cls-158" points="410.75 164.8 419.33 148.3 414.75 141.58 410.75 164.8"/><polygon class="cls-178" points="435.01 161.88 410.75 164.93 419.15 147.53 435.01 161.88"/><polygon class="cls-191" points="432.6 146.35 419.33 148.3 435.45 162.87 432.6 146.35"/><polygon class="cls-192" points="421.62 139.29 432.6 146.35 419.33 148.3 421.62 139.29"/><polygon class="cls-193" points="435.19 161.57 410.75 164.93 418.41 185.68 435.19 161.57"/><polygon class="cls-194" points="445.26 173.62 435.19 161.57 418.41 185.68 445.26 173.62"/><polygon class="cls-189" points="441.14 191.32 445.26 173.62 428.63 188.42 441.14 191.32"/><polygon class="cls-149" points="453.12 187.66 445.26 173.62 441.14 191.32 453.12 187.66"/><polygon class="cls-189" points="427.56 188.42 445.26 173.62 441.14 191.32 427.56 188.42"/><polygon class="cls-89" points="396.44 191.32 396.76 201.9 414.75 200.17 396.44 191.32"/><polygon class="cls-173" points="404.29 189.44 396.44 191.32 396.44 177.29 404.29 189.44"/><polygon class="cls-132" points="398.03 52.93 397.19 68.65 411.28 67.73 398.03 52.93"/><polygon class="cls-33" points="397.19 212.12 414.75 200.17 410.93 211.16 397.19 212.12"/><polygon class="cls-155" points="410.93 211.16 397.62 215.46 397.19 212.12 410.93 211.16"/><polygon class="cls-125" points="432.53 202.99 415.57 212.77 410.93 211.16 432.53 202.99"/><polygon class="cls-194" points="397.62 215.46 415.57 212.77 410.93 211.16 397.62 215.46"/><polygon class="cls-194" points="453.12 187.66 440.37 202.99 432.53 202.99 453.12 187.66"/><polygon class="cls-153" points="415.57 212.77 427.69 208.95 425.82 206.85 415.57 212.77"/><polygon class="cls-125" points="432.53 202.99 425.82 206.85 427.69 208.95 440.37 202.99 432.53 202.99"/><polygon class="cls-125" points="440.37 202.99 450.32 196.61 453.12 187.66 440.37 202.99"/><polygon class="cls-189" points="468.35 168.22 453.12 187.66 450.32 196.61 468.35 168.22"/><polygon class="cls-33" points="468.35 168.22 450.32 196.61 462.43 186.23 467.77 180.41 468.35 168.22"/><polygon class="cls-178" points="485.3 30.58 487.31 14.85 476.16 21.55 485.3 30.58"/><polygon class="cls-161" points="466.82 17.64 480.32 9.2 473.32 21.55 466.82 17.64"/><polygon class="cls-176" points="487.31 14.85 480.32 9.2 457.32 36.76 487.31 14.85"/><polygon class="cls-186" points="397.41 129.99 397.2 100.08 410.32 116.71 397.41 129.99"/></g></g></g></svg>