<?xml version="1.0" encoding="utf-8"?>
<!-- Generator: Adobe Illustrator 21.0.2, SVG Export Plug-In . SVG Version: 6.00 Build 0)  -->
<svg version="1.1" id="Capa_1" xmlns="http://www.w3.org/2000/svg" xmlns:xlink="http://www.w3.org/1999/xlink" x="0px" y="0px"
	 viewBox="0 0 195 200" style="enable-background:new 0 0 195 200;" xml:space="preserve">
<style type="text/css">
	.st0{fill:none;}
	.st1{fill:#CE876E;}
	.st2{fill:#98833C;}
	.st3{fill:#4C3638;}
	.st4{fill:#C8BB7B;}
	.st5{fill:#998041;}
	.st6{fill:#C198B6;}
	.st7{fill:#D7B9CE;}
	.st8{fill:#FBF2C3;}
	.st9{fill:#E5D0CB;}
	.st10{fill:#FCFAE6;}
	.st11{fill:#EBECEE;}
	.st12{fill:#B66D45;}
	.st13{fill:#CA5B27;}
	.st14{fill:#8F5D3F;}
	.st15{fill:#73615A;}
	.st16{fill:#DA956D;}
	.st17{fill:#B59548;}
	.st18{fill:#BAAC90;}
	.st19{fill:#FAEEAE;}
	.st20{fill:#6D3615;}
	.st21{fill:#747074;}
	.st22{fill:#81615C;}
	.st23{fill:#9C7974;}
	.st24{fill:#7F4D29;}
	.st25{fill:#F4DC81;}
	.st26{fill:#7E8B4D;}
	.st27{fill:#B7CDA2;}
	.st28{fill:#D5CABB;}
	.st29{fill:#C6B3A4;}
	.st30{fill:#686046;}
	.st31{fill:#CCBD8A;}
	.st32{fill:#EBDDCD;}
	.st33{fill:#EBCAB1;}
	.st34{fill:#DFA582;}
	.st35{fill:#B1835D;}
	.st36{fill:#528368;}
	.st37{fill:#74A278;}
	.st38{fill:#747C30;}
	.st39{fill:#AEAA67;}
	.st40{fill:#7F3C30;}
	.st41{fill:#CEC4AE;}
	.st42{fill:#A68288;}
	.st43{fill:#B39B88;}
	.st44{fill:#AD8C91;}
	.st45{fill:#8F7972;}
	.st46{fill:#E6BA9A;}
	.st47{fill:#F0D5A3;}
	.st48{fill:#D68B77;}
	.st49{fill:#EDCC90;}
	.st50{fill:#E9C4A4;}
	.st51{fill:#E7D0B8;}
	.st52{fill:#FFFFFF;}
</style>
<g>
	<path class="st0" d="M194.2,86.2l0.5,10.2v22.4l-0.2,21.4l0.2,24.7l0.5,9V86.2C194.9,86.2,194.5,86.2,194.2,86.2z"/>
	<path class="st0" d="M169.8,128.8c-1.5-0.5-4.2,0-6.5,1.1c-2.3,1.1-4.2,3-4.2,3v12.7l11.9,0.8c-1-0.2-2.1-0.4-3.4-0.6
		c-9-1.7-8.3-11.8-8.3-12.7s4.2-3,7.7-3.5c3.1-0.4,8.1,1.3,9.2,1.6l-5.7-11.7l5.7,11.7C176,131.1,171.3,129.2,169.8,128.8z"/>
	<polygon class="st0" points="194.7,198.7 194.5,200 195.2,200 195.2,183.9 195,191.4 	"/>
	<polygon class="st0" points="185,164.9 185,164.9 184.4,163.7 	"/>
	<polygon class="st0" points="158.5,98.8 160.3,75.7 159.8,82.5 	"/>
	<polygon class="st0" points="172.5,94 160.3,75.7 168.1,87.4 	"/>
	<polygon class="st0" points="172.5,94 158.5,98.8 177.3,92.3 	"/>
	<polygon class="st0" points="187,154.8 185.1,164.9 189.6,163.4 187.1,154.8 	"/>
	<path class="st0" d="M137.4,147.5l-1.8-22.4L137.4,147.5z"/>
	<polygon class="st0" points="182.7,120.3 178.9,105.3 185.3,130.7 	"/>
	<polygon class="st0" points="140.1,101.9 133.6,86.2 143.1,109.7 	"/>
	<path class="st0" d="M172.9,196.4l-9-4.2l-7.1-4.5l-8.6-7.4l-3.8-4.2l-0.4-8.7l-4.2-5.2l0,0l-0.7-0.8l0,0l-4.6-5.6l1.1-30.8
		l4.2-9.5l-6.1-29.3l-1.8-17L130.4,58l5-4l9.6,6l2.1,1.9l13.1,13.9l11.3,11.1l10.6-1.6h11.9v0.6c0.5,0,0.8,0.1,1.1,0.1V48.4h-77.5
		V200H187l-5.5-0.8L172.9,196.4z"/>
	<polygon class="st1" points="151.3,176.9 154.8,181.3 156.7,177.8 	"/>
	<path class="st2" d="M194.2,86.2c0.4,0,0.8-0.1,1.1-0.1v-0.3c-0.3,0-0.7-0.1-1.1-0.1L194.2,86.2z"/>
	<path class="st3" d="M167,129.6c-3.4,0.5-7.7,2.6-7.7,3.5s-0.8,10.9,8.3,12.7c1.3,0.2,2.4,0.5,3.4,0.6l6.3,0.4l4.5-3.9l-5.6-11.7
		C175.1,130.9,170.1,129.2,167,129.6z M169.2,131L169.2,131c0.1,0,0.1,0,0.2,0h0.1c0,0,0.3,0,0.7,0c0.1,0,0.2,0,0.2,0s0.2,0,0.2,0
		c4.1,0.4,5.5,2.8,6,5.1c0.1,0.5,0.2,0.9,0.2,1.4c0.1,1.2-0.1,2.2-0.4,3l0,0l0,0c-1.4,4.2-6.5,4.8-6.5,4.8c-3.8,0.4-6.5-1.9-7.4-4.8
		l0,0c0,0,0-0.2-0.1-0.3c-0.2-0.5-0.2-1-0.2-1.4c-0.2-2.7,0.2-7.7,6.7-7.9C169,131,169.2,131,169.2,131L169.2,131z"/>
	<path class="st4" d="M169.3,131C169.4,131,169.4,131,169.3,131C169.4,131,169.4,131,169.3,131z"/>
	<path class="st4" d="M176.4,140.7c0.3-0.8,0.5-1.9,0.4-3c0-0.5-0.2-1-0.2-1.4C176.9,138.3,176.4,140.4,176.4,140.7z"/>
	<path class="st4" d="M162.4,140.4c-0.1-0.3-0.2-0.8-0.2-1.4C162.2,139.4,162.3,139.9,162.4,140.4z"/>
	<path class="st4" d="M168.9,131c0.2,0,0.3,0,0.4,0C169.2,131,169,131,168.9,131z"/>
	<path class="st4" d="M171.1,136c0.2,0.8,0.3,1.5,0.4,2.2c0.2,2.5-1.8,6.1-1.8,6.1c-1,0.1-2-3.9-2.1-5.8c0-0.7,0.2-1.7,0.5-2.7
		c-3.2,0.9-5.4,4.7-5.5,4.8c0.9,2.9,3.6,5.2,7.4,4.8c0,0,5.1-0.6,6.5-4.8C176.4,140.7,174.2,137.2,171.1,136z"/>
	<path class="st4" d="M170.3,131c0.1,0,0.2,0,0.2,0C170.4,131,170.4,131,170.3,131z"/>
	<path class="st4" d="M169.5,131c0.2,0,0.5,0,0.7,0C169.7,131,169.5,131,169.5,131z"/>
	<path class="st5" d="M162.2,138.9c0.1,0.6,0.2,1.1,0.2,1.4c0.1,0.2,0.1,0.3,0.1,0.3l0,0c0.1-0.1,2.3-3.9,5.5-4.8
		c0.5-1.8,1.4-3.8,1.7-3.7c0.3,0,1.1,1.9,1.5,3.9c3,1.1,5.2,4.6,5.2,4.7l0,0l0,0c0.1-0.3,0.5-2.3,0.2-4.5c-0.5-2.3-1.9-4.7-6-5.1
		c-0.1,0-0.2,0-0.2,0s-0.2,0-0.2,0c-0.2,0-0.5,0-0.7,0h-0.1c0,0,0,0-0.1,0h-0.1l0,0c-0.2,0-0.3,0-0.4,0
		C162.3,131.3,161.9,136.2,162.2,138.9z"/>
	<path class="st3" d="M169.6,144.4c0,0,2-3.6,1.8-6.1c-0.1-0.7-0.2-1.4-0.4-2.2c-0.5-2-1.2-3.9-1.5-3.9s-1.1,1.9-1.7,3.7
		c-0.3,1-0.5,2-0.5,2.7C167.6,140.5,168.6,144.4,169.6,144.4z"/>
	<polygon class="st6" points="184.9,198 182.2,190.2 169.5,192.2 	"/>
	<polygon class="st7" points="169.5,192.2 182.2,190.2 154.8,181.3 	"/>
	<polygon class="st6" points="195,191.4 182.2,190.2 194.7,198.7 	"/>
	<polygon class="st8" points="179.5,179.8 182.2,190.2 195.2,183.9 189.6,182.6 	"/>
	<path class="st8" d="M192,171.1l-1-0.8c-0.1-0.1-0.2-0.2-0.2-0.2l-2.3-2c0,0-0.1,0-0.1-0.1l-0.4-0.3c0,0-0.1,0-0.1-0.1l-3-2.6
		l-5.5,14.8l15.7-6L192,171.1L192,171.1z"/>
	<polygon class="st9" points="189.6,182.6 195.2,173.9 179.5,179.8 	"/>
	<polygon class="st10" points="182.2,190.2 179.5,179.8 173,181.8 	"/>
	<polygon class="st11" points="173,181.8 179.5,179.8 160.4,171.3 	"/>
	<polygon class="st11" points="163.3,183.9 154.8,181.3 182.2,190.2 173,181.8 	"/>
	<polygon class="st12" points="189.6,163.4 192,165.6 194.7,164.8 187.1,154.8 	"/>
	<path class="st13" d="M188.4,168c-0.2-0.2-0.3-0.2-0.4-0.3L188.4,168z"/>
	<path class="st13" d="M190.8,170.1c-0.8-0.7-1.7-1.5-2.3-2L190.8,170.1z"/>
	<path class="st13" d="M192,165.6l-2.3-2.2l-4.6,1.5v0.1v-0.1l0,0l0.1,0.2l0,0l3,2.6l-0.1-0.1c-0.5-0.4,1.7-0.6,1.7-0.6l2.6,1.7v2.6
		c0,0-0.1-0.1-0.2-0.2l3.2,2.7l-0.5-9L192,165.6z"/>
	<path class="st13" d="M192,171.1c-0.2-0.2-0.5-0.5-1-0.8L192,171.1z"/>
	<path class="st14" d="M188.4,168C188.4,168,188.5,168,188.4,168c0.7,0.6,1.6,1.4,2.4,2c0.1,0.1,0.2,0.2,0.2,0.2
		c0.5,0.4,0.8,0.7,1,0.8l0,0c0.1,0.1,0.2,0.2,0.2,0.2v-2.6l-2.6-1.7c0,0-2.2,0.2-1.7,0.6l0.1,0.1c0,0,0.1,0,0.1,0.1
		C188.1,167.7,188.3,167.9,188.4,168z"/>
	<polygon class="st1" points="194.7,164.8 194.5,140.1 187.1,154.8 	"/>
	<polygon class="st15" points="182.3,148.5 182.2,148.5 185,165 185.1,164.9 187,154.8 	"/>
	<polygon class="st16" points="182.3,148.5 187,154.8 187.1,154.8 194.5,140.1 188.9,143.9 	"/>
	<polygon class="st17" points="181.7,142.9 182.2,148.4 182.2,148.5 182.3,148.5 188.9,143.9 	"/>
	<polygon class="st18" points="188.9,143.9 194.5,140.1 185.3,130.7 	"/>
	<polygon class="st19" points="181.7,142.9 188.9,143.9 185.3,130.7 	"/>
	<polygon class="st20" points="194.7,118.8 194.7,96.4 184.6,95.7 	"/>
	<polygon class="st21" points="184.6,95.7 194.1,85.2 182.2,85.2 	"/>
	<polygon class="st2" points="178.9,105.3 194.7,118.8 184.6,95.7 	"/>
	<polygon class="st22" points="182.7,120.3 194.7,118.8 178.9,105.3 	"/>
	<polygon class="st4" points="185.3,130.7 194.7,118.8 182.7,120.3 	"/>
	<polygon class="st23" points="177.3,92.3 184.6,95.7 182.2,85.2 	"/>
	<polygon class="st24" points="177.3,92.3 182.2,85.2 171.6,86.8 	"/>
	<polygon class="st3" points="178.9,105.3 184.6,95.7 177.3,92.3 	"/>
	<polygon class="st25" points="185.3,130.7 178.9,105.3 178,125.1 	"/>
	<polygon class="st8" points="178,125.1 170.4,119.4 176.1,131.2 181.7,142.9 185.3,130.7 	"/>
	<polygon class="st24" points="178,125.1 178,125.1 178.9,105.3 170.4,119.4 	"/>
	<polygon class="st26" points="158.5,98.8 178.9,105.3 177.3,92.3 	"/>
	<polygon class="st27" points="177.3,92.3 171.6,86.8 160.3,75.7 172.5,94 	"/>
	<polygon class="st24" points="168.1,87.4 158.5,98.8 172.5,94 	"/>
	<polygon class="st23" points="168.1,87.4 160.3,75.7 158.5,98.8 	"/>
	<polygon class="st28" points="151.8,73.6 143.1,83.7 158.5,98.8 	"/>
	<polygon class="st29" points="159.8,82.5 151.8,73.6 158.5,98.8 	"/>
	<polygon class="st30" points="159.8,82.5 160.3,75.7 151.8,73.6 	"/>
	<polygon class="st2" points="160.3,75.7 147.1,61.8 151.8,73.6 	"/>
	<polygon class="st17" points="142.5,62.4 147.1,61.8 145.1,59.9 141.9,61.8 	"/>
	<polygon class="st31" points="151.8,73.6 147.1,61.8 142.5,62.4 	"/>
	<polygon class="st32" points="137.8,63.4 131.9,69.2 151.8,73.6 	"/>
	<polygon class="st33" points="151.8,73.6 131.9,69.2 143.1,83.7 	"/>
	<polygon class="st34" points="131.9,69.2 133.6,86.2 143.1,83.7 	"/>
	<polygon class="st1" points="143.1,83.7 133.6,86.2 140.1,101.9 	"/>
	<polygon class="st34" points="143.1,83.7 140.1,101.9 158.5,98.8 	"/>
	<polygon class="st1" points="140.1,101.9 143.1,109.7 158.5,98.8 	"/>
	<polygon class="st35" points="155.7,119.4 167.3,112.4 178.9,105.3 158.5,98.8 	"/>
	<polygon class="st35" points="155.7,119.4 143.1,109.7 145.2,119.4 155.3,119.4 	"/>
	<polygon class="st32" points="133.6,86.2 139.7,115.5 143.1,109.7 	"/>
	<polygon class="st18" points="135.6,125 134.4,155.8 137.4,147.5 	"/>
	<polygon class="st36" points="143.1,109.7 139.7,115.5 145.2,119.4 	"/>
	<polygon class="st37" points="139.7,115.5 135.6,125 145.2,119.4 	"/>
	<polygon class="st18" points="145.2,119.4 135.6,125 137.4,147.5 	"/>
	<polygon class="st18" points="170.4,119.4 178.9,105.3 167.3,112.4 	"/>
	<polygon class="st30" points="167.3,112.4 155.7,119.4 170.4,119.4 	"/>
	<path class="st28" d="M163.2,129.9c2.3-1.1,5-1.5,6.5-1.1s6.3,2.3,6.3,2.3l-5.7-11.7L159.1,133C159.1,132.9,160.9,131,163.2,129.9z
		"/>
	<polygon class="st31" points="159.1,132.9 170.4,119.4 155.7,119.4 155.3,119.4 	"/>
	<polygon class="st38" points="155.3,119.4 146.7,132.9 159.1,132.9 	"/>
	<polygon class="st2" points="158.5,98.8 143.1,109.7 155.7,119.4 	"/>
	<polygon class="st39" points="146.7,132.9 146.7,132.9 155.3,119.4 145.2,119.4 137.4,147.5 143.9,137.2 	"/>
	<polygon class="st15" points="143.9,137.2 137.4,147.5 145.2,145.7 	"/>
	<polygon class="st40" points="143.9,137.2 145.2,145.7 149.2,136.4 	"/>
	<polygon class="st3" points="146.7,132.9 146.7,132.9 143.9,137.2 149.2,136.4 159.1,132.9 	"/>
	<polygon class="st41" points="149.2,136.4 159.1,145.7 159.1,132.9 	"/>
	<polygon class="st42" points="149.2,136.4 155.7,158 159.1,145.7 	"/>
	<polygon class="st1" points="145.2,145.7 155.7,158 149.2,136.4 	"/>
	<polygon class="st43" points="137.4,147.5 155.7,158 145.2,145.7 	"/>
	<path class="st44" d="M139.7,162.3l4.2,5.2L139.7,162.3z"/>
	<polygon class="st44" points="141.8,160.9 155.7,158 137.4,147.5 	"/>
	<polygon class="st43" points="137.4,147.5 137.4,147.5 134.4,155.8 139.1,161.4 141.8,160.9 	"/>
	<polygon class="st45" points="141.8,160.9 139.1,161.4 139.1,161.4 139.7,162.3 143.9,167.4 155.7,158 	"/>
	<polygon class="st1" points="160.4,171.3 143.9,167.4 150.6,175.9 	"/>
	<polygon class="st42" points="150.6,175.9 151.3,176.9 156.7,177.8 160.4,171.3 	"/>
	<polygon class="st46" points="155.7,158 143.9,167.4 160.4,171.3 	"/>
	<polygon class="st47" points="155.7,158 160.4,171.3 167.6,162.7 167.6,162.6 	"/>
	<polygon class="st44" points="169.5,151.8 155.7,158 167.6,162.6 	"/>
	<polygon class="st45" points="159.1,145.7 155.7,158 169.5,151.8 	"/>
	<polygon class="st4" points="159.1,145.7 169.5,151.8 177.3,146.8 171,146.3 	"/>
	<polygon class="st14" points="181.7,142.9 177.3,146.8 182.2,148.4 	"/>
	<polygon class="st39" points="177.3,146.8 178.9,152.9 179,152.6 179.2,152.9 182.2,148.4 	"/>
	<polygon class="st14" points="182.2,148.5 182.2,148.4 179.2,152.9 184.4,163.7 185,164.9 185,165 	"/>
	<polygon class="st34" points="179.2,152.9 179,152.6 178.9,152.9 178.9,153.2 168.3,162.8 185,165.1 185,164.9 184.4,163.7 	"/>
	<polygon class="st48" points="169.5,151.8 167.6,162.6 167.6,162.7 167.6,162.6 168.3,162.8 178.9,153.2 	"/>
	<polygon class="st49" points="177.3,146.8 169.5,151.8 178.9,153.2 178.9,152.9 	"/>
	<polygon class="st50" points="168.3,162.8 167.6,162.6 179.5,179.8 185,165.1 185,165.1 	"/>
	<polygon class="st51" points="167.6,162.6 167.6,162.7 160.4,171.3 179.5,179.8 	"/>
	<polygon class="st1" points="156.7,177.8 154.8,181.3 163.3,183.9 160.4,171.3 	"/>
	<polygon class="st46" points="163.3,183.9 173,181.8 160.4,171.3 	"/>
	<polygon class="st52" points="195,191.4 195.2,183.9 182.2,190.2 	"/>
	<polygon class="st29" points="189.6,182.6 195.2,183.9 195.2,173.9 	"/>
	<polygon class="st3" points="194.1,85.2 184.6,95.7 194.7,96.4 194.2,86.2 194.2,85.8 	"/>
	<polygon class="st7" points="194.7,198.7 182.2,190.2 184.9,198 	"/>
	<polygon class="st10" points="184.9,198 191,200 194.5,200 194.7,198.7 	"/>
	<polygon class="st11" points="174.3,195 181.6,199.2 184.9,198 169.5,192.2 	"/>
	<polygon class="st51" points="181.6,199.2 187,200 191,200 184.9,198 	"/>
	<polygon class="st51" points="154.8,181.3 163.9,192.2 169.5,192.2 	"/>
	<polygon class="st8" points="172.9,196.4 181.6,199.2 174.3,195 	"/>
	<polygon class="st11" points="174.3,195 169.5,192.2 163.9,192.2 172.9,196.4 	"/>
	<polygon class="st11" points="156.8,187.6 163.9,192.2 154.8,181.3 	"/>
	<polygon class="st46" points="151.3,176.9 150.6,175.9 143.9,167.4 156.8,187.6 154.8,181.3 	"/>
	<polygon class="st7" points="143.9,167.4 144.4,176.1 148.2,180.2 156.8,187.6 	"/>
	<polygon class="st34" points="130.4,58 131.9,69.2 137.8,63.4 	"/>
	<polygon class="st17" points="145.1,59.9 135.4,54 141.9,61.8 	"/>
	<polygon class="st32" points="151.8,73.6 142.5,62.4 141.9,61.8 135.4,54 130.4,58 137.8,63.4 	"/>
	<polygon class="st42" points="194.5,140.1 194.7,118.8 185.3,130.7 	"/>
</g>
</svg>
