<?xml version="1.0" encoding="utf-8"?>
<!-- Generator: Adobe Illustrator 21.0.2, SVG Export Plug-In . SVG Version: 6.00 Build 0)  -->
<svg version="1.1" id="Capa_1" xmlns="http://www.w3.org/2000/svg" xmlns:xlink="http://www.w3.org/1999/xlink" x="0px" y="0px"
	 viewBox="0 0 195 200" style="enable-background:new 0 0 195 200;" xml:space="preserve">
<style type="text/css">
	.st0{fill:none;}
	.st1{fill:#F7EDF4;}
	.st2{fill:#564F4F;}
	.st3{fill:#211915;}
	.st4{fill:#777782;}
	.st5{fill:#56585F;}
	.st6{fill:#FAF7FA;}
	.st7{fill:#FBFCFC;}
	.st8{fill:#F2F8FC;}
	.st9{fill:#FEFDF6;}
	.st10{fill:#F6F8F2;}
	.st11{fill:#F1DDE9;}
	.st12{fill:#DDC2CE;}
	.st13{fill:#BAA0AD;}
	.st14{fill:#ECD3E1;}
	.st15{fill:#C1A1B7;}
	.st16{fill:#AF9FB4;}
	.st17{fill:#A98DAA;}
	.st18{fill:#AE95A9;}
	.st19{fill:#AD89A4;}
	.st20{fill:#C0A4BB;}
	.st21{fill:#A0849A;}
	.st22{fill:#A07C9E;}
	.st23{fill:#B396B3;}
	.st24{fill:#D4B7C4;}
	.st25{fill:#E1D5E7;}
	.st26{fill:#CDB8D0;}
	.st27{fill:#C4AEB9;}
	.st28{fill:#BCA8B7;}
	.st29{fill:#CCADC3;}
	.st30{fill:#D7B9CE;}
	.st31{fill:#EED6E6;}
	.st32{fill:#BEA1BF;}
	.st33{fill:#D1C3D4;}
	.st34{fill:#DCD4E2;}
	.st35{fill:#DFCCDB;}
	.st36{fill:#E7D5E2;}
	.st37{fill:#F4E4E6;}
	.st38{fill:#F3EFED;}
	.st39{fill:#63646D;}
	.st40{fill:#F3E8ED;}
	.st41{fill:#5D5F67;}
	.st42{fill:#D3CADB;}
	.st43{fill:#D6D2E2;}
	.st44{fill:#87858F;}
	.st45{fill:#E8DCE6;}
	.st46{fill:#F2E5EE;}
	.st47{fill:#BAB5B8;}
	.st48{fill:#E3D3DB;}
	.st49{fill:#D1CADF;}
	.st50{fill:#A68494;}
	.st51{fill:#836F8B;}
	.st52{fill:#DCCDE3;}
	.st53{fill:#D1BFC9;}
	.st54{fill:#D6C4D4;}
	.st55{fill:#E4CCDD;}
	.st56{fill:#ECD1DC;}
	.st57{fill:#E4C6DB;}
	.st58{fill:#C5A9C7;}
	.st59{fill:#EACADB;}
	.st60{fill:#C198B6;}
	.st61{fill:#C9BBC8;}
	.st62{fill:#BBABC3;}
	.st63{fill:#9E798B;}
	.st64{fill:#D9CFD9;}
	.st65{fill:#928487;}
	.st66{fill:#BD97AC;}
	.st67{fill:#CBB3D3;}
	.st68{fill:#E7D0DB;}
	.st69{fill:#BCA6BF;}
	.st70{fill:#332F2E;}
	.st71{fill:#F6F0F5;}
	.st72{fill:#453B49;}
	.st73{fill:#9093A0;}
	.st74{fill:#4D4252;}
	.st75{fill:#444B52;}
	.st76{fill:#4B353E;}
	.st77{fill:#57575A;}
	.st78{fill:#73696C;}
	.st79{fill:#A694AA;}
	.st80{fill:#3F3F43;}
	.st81{fill:#71717B;}
	.st82{fill:#5F5266;}
	.st83{fill:#564B5D;}
	.st84{fill:#66596F;}
	.st85{fill:#291A28;}
	.st86{fill:#FFFFFF;}
	.st87{fill:#8F83A6;}
	.st88{fill:#8C7892;}
	.st89{fill:#8C88AB;}
	.st90{fill:#AEB0BB;}
	.st91{fill:#D4C6DB;}
	.st92{fill:#928099;}
	.st93{fill:#6A6B74;}
	.st94{fill:#A89FBE;}
	.st95{fill:#989CA8;}
	.st96{fill:#928E97;}
	.st97{fill:#70648C;}
	.st98{fill:#A29EBC;}
	.st99{fill:#7D7C87;}
	.st100{fill:#B9BCC6;}
	.st101{fill:#DACDDE;}
	.st102{fill:#C9CACF;}
	.st103{fill:#B5B3CE;}
	.st104{fill:#595759;}
	.st105{fill:#B3B8BB;}
	.st106{fill:#A5A1A9;}
	.st107{fill:#FFFFFD;}
	.st108{fill:#D8D9DD;}
	.st109{fill:#E1E9E9;}
	.st110{fill:#BBBAD1;}
	.st111{fill:#E9E4E9;}
	.st112{fill:#CDC7C9;}
	.st113{fill:#D9D8DA;}
	.st114{fill:#F1E9F0;}
	.st115{fill:#DED8E6;}
	.st116{fill:#BDA9CD;}
	.st117{fill:#806673;}
	.st118{fill:#D2D1E2;}
	.st119{fill:#E9DFE0;}
	.st120{fill:#C7C4C1;}
	.st121{fill:#EBECEE;}
	.st122{fill:#B1A6A9;}
	.st123{fill:#9D9699;}
	.st124{fill:#827478;}
	.st125{fill:#5C4859;}
	.st126{fill:#9C7F8C;}
	.st127{fill:#493845;}
	.st128{fill:#4C3638;}
	.st129{fill:#966F78;}
	.st130{fill:#795B56;}
	.st131{fill:#8D7F61;}
	.st132{fill:#8F7972;}
	.st133{fill:#7A6452;}
	.st134{fill:#C9C6C8;}
	.st135{fill:#BBB8C0;}
	.st136{fill:#E1E0DE;}
	.st137{fill:#E4E9DE;}
	.st138{fill:#EDF1E7;}
	.st139{fill:#F1F4F5;}
	.st140{fill:#584235;}
	.st141{fill:#493E36;}
	.st142{fill:#BCBDC2;}
	.st143{fill:#24171E;}
</style>
<g>
	<polygon class="st0" points="9.5,158.8 17.7,166.1 17.8,166.1 9.5,158.7 7,166.1 7.1,166.1 	"/>
	<polygon class="st0" points="24,136.3 23.9,136.3 21.1,139.6 21.1,139.6 21.2,139.7 21.2,139.6 	"/>
	<path class="st0" d="M0.5,39.6v44.3c3.1-0.2,9.4-0.5,17.3,1.4L23,70.8l3.4-7.7l3.3,9.4l0,0l-3.2-9.4l3.3-5.4l2.8-3.8l0,0l3-3.3
		l5.4-3.8l8.1,0.5L53,50l0.4,1.4l3.7,4.8l3.7,7.9l0.6,5.9l-1.9,0.2v0.1l2.1-0.2v7.2l-1.7-0.6l1.3,0.7v-0.1v0.1l0,0l0,0l-1.4,7.4
		l0.6,9.4l-0.2-0.2v5.8l0.2-0.8l-0.6,14.6v0.9l0,0l0,0l0,0l0,0l-3,7.2l2.6,9.1l0.9,15l-0.9,8.8l-6.8,5.4l1.6,10.4l-6.3,10.2
		l-6.2,6.5l-12.1,7.2l-8,2.6l-2.8,0.2h2.8l-5.8,1.5l-0.6-0.1l-7,0.9l-0.5-0.2l-7,0.1v0.6h65.2V39.6H0.5z"/>
	<polygon class="st0" points="3,178.5 3,178.5 6.3,175.8 6.2,175.8 	"/>
	<polygon class="st0" points="8.9,135.1 8.9,135.3 8.9,135.2 	"/>
	<polygon class="st0" points="36.6,139.9 36.6,139.8 33.3,135.8 33.3,135.8 30.8,135.2 30.8,135.2 33.2,135.8 	"/>
	<polygon class="st0" points="15.7,145.9 15.7,145.9 8.9,141.8 8.9,141.8 8.9,141.8 	"/>
	<polygon class="st0" points="1,152.1 0.6,156.9 0.8,153.9 	"/>
	<path class="st0" d="M44.5,181.9l-2.9,5.3L44.5,181.9z"/>
	<polygon class="st0" points="8.9,134.6 8.9,134.6 21,133.7 21,133.7 	"/>
	<polygon class="st0" points="49,50 44.6,55.7 43,55.2 44.6,55.7 	"/>
	<polygon class="st0" points="37.1,125 37.3,124.9 37.1,124.9 	"/>
	<polygon class="st0" points="31.7,145.3 31.4,145.2 31.5,145.2 	"/>
	<polygon class="st0" points="28.7,177.7 21.5,197 23.8,190.7 	"/>
	<polygon class="st0" points="43.3,132.9 42.5,141.2 42.6,141.4 43.4,132.9 37.3,124.9 37.3,125.2 	"/>
	<polygon class="st0" points="1.3,197.3 0.5,197.3 0.5,197.3 0.6,197.3 	"/>
	<polygon class="st0" points="33.4,128.9 37.1,131 37.1,130.9 33.3,128.8 37.1,125.1 37.1,124.9 37,124.9 33.3,128.5 28.5,128.5 
		29,128.9 	"/>
	<polygon class="st0" points="34,57.9 35.8,64.5 35.8,64.4 34,57.8 29.7,64.4 29.8,64.5 	"/>
	<polygon class="st0" points="53.4,75.9 53.2,76 53.2,76.1 	"/>
	<polygon class="st0" points="51,100.7 50.9,100.7 51,101 	"/>
	<polygon class="st0" points="30.1,80.8 30.6,86.2 30.7,86.3 30.2,80.8 27.4,77.5 27.4,77.6 	"/>
	<polygon class="st0" points="44.5,181.9 47.2,177.1 49.6,172.8 49.6,172.8 	"/>
	<polygon class="st0" points="36.6,140.5 31.8,142.9 31.8,142.9 	"/>
	<polygon class="st0" points="10.1,180.7 10.1,184.6 10.2,180.7 	"/>
	<polygon class="st0" points="5.8,117.1 0.5,121.1 0.5,121.4 5.8,117.2 	"/>
	<path class="st0" d="M54.5,142.5l0.9-17.7L54.5,142.5z"/>
	<polygon class="st0" points="39.6,57.7 38.5,60.8 34.1,57.7 34,57.7 38.5,60.8 39.6,57.7 43,55.2 43,55.2 	"/>
	<polygon class="st0" points="24.9,135.5 24,136.1 23.9,136.3 23.9,136.3 	"/>
	<polygon class="st0" points="54.6,57.7 53.7,58.2 53.7,58.3 54.9,57.7 53.1,56.4 53.1,56.5 	"/>
	<polygon class="st0" points="27.4,104 17.3,102.7 27.5,93.6 27.4,93.4 17,102.7 27.4,104 	"/>
	<polygon class="st0" points="31.5,131.1 31.2,131.3 31.6,131.2 	"/>
	<polygon class="st0" points="58.4,72.5 58.4,71.7 58.3,71.7 	"/>
	<polygon class="st0" points="43.5,108.5 43.5,108.5 48.5,113.2 40.2,105.4 	"/>
	<polygon class="st0" points="27.4,93.4 27.6,93.3 25.6,85 27.4,84 27.3,84 27.3,84 16.2,90.4 16.2,90.4 25.4,85 	"/>
	<polygon class="st0" points="0.5,156.8 0.5,157.1 0.6,156.9 	"/>
	<polygon class="st0" points="57.9,64.5 54.9,57.7 56.9,63.2 61.1,70.1 58,65.1 	"/>
	<polygon class="st0" points="50.3,60 50.3,60 50.6,59.9 50.4,59.9 	"/>
	<polygon class="st0" points="8.2,148.5 0.5,144.5 0.5,144.5 	"/>
	<polygon class="st0" points="38.5,52.4 35.4,50.6 38.2,52.9 	"/>
	<polygon class="st0" points="15.8,174.9 19.8,175.8 28.7,177.7 	"/>
	<polygon class="st0" points="38.8,96.2 37.5,102.8 37.5,102.8 38.8,96.3 	"/>
	<path class="st0" d="M34.9,88L34.9,88L34.9,88z"/>
	<polygon class="st0" points="37.5,102.8 35.4,96.2 35,94.3 34.9,94.4 	"/>
	<polygon class="st0" points="39.6,88 37,90.8 37.1,90.8 39.6,88.1 	"/>
	<polygon class="st0" points="36.6,180.7 34.2,187.3 36.8,180.1 	"/>
	<polygon class="st0" points="55.4,124.8 56.6,121.8 48.5,113.2 	"/>
	<polygon class="st0" points="38.6,81.5 38.8,81.6 43.9,75.7 43.8,75.6 38.4,75.2 38.4,75.2 43.8,75.6 	"/>
	<polygon class="st0" points="15.3,91.2 15.2,91.2 12.8,94.4 0.5,91.4 0.5,91.5 12.8,94.4 	"/>
	<polygon class="st0" points="8.6,134.7 8.6,134.6 3.5,128.1 3.6,128 0.5,126.4 0.5,126.5 3.5,128.1 	"/>
	<polygon class="st0" points="8.1,102.6 0.5,93.2 0.5,93.4 8,102.7 8.1,104.8 0.5,105 0.5,105 8.2,104.8 	"/>
	<polygon class="st0" points="1.6,141.4 1.3,141.3 0.5,141.3 0.5,141.6 1.5,141.4 0.5,143.1 0.5,143.2 	"/>
	<polygon class="st0" points="43.5,82.4 43.8,82.4 43.9,82.4 	"/>
	<polygon class="st0" points="34.1,99.6 34.1,99.6 34.9,94.4 	"/>
	<polygon class="st0" points="21,133.9 18.3,139.8 18.3,139.8 	"/>
	<path class="st0" d="M29.7,72.5c0,0.1,0.1,0.2,0.2,0.3L29.7,72.5z"/>
	<polygon class="st0" points="24,146.9 18.6,141.1 18.2,140.9 18.2,141 23.8,146.9 23.9,146.9 	"/>
	<polygon class="st1" points="50.6,59.9 53.7,58.3 53.7,58.2 50.4,59.9 	"/>
	<polygon class="st1" points="46.1,56.2 50.2,54.2 53.1,56.5 53.1,56.4 52.9,56.3 52.3,53.8 49,50 44.6,55.7 	"/>
	<polygon class="st2" points="15.2,91.2 3.3,91.2 0.5,87.2 0.5,91.4 12.8,94.4 	"/>
	<path class="st3" d="M16.3,89.9l10.1-13.8L23,70.9l-5.2,14.4c0.1,0,0.2,0,0.2,0.1L16.3,89.9z"/>
	<polygon class="st4" points="29.7,72.5 23,70.8 26.4,76 	"/>
	<polygon class="st5" points="26.4,63.2 23,70.8 29.7,72.5 	"/>
	<polygon class="st6" points="29.7,64.8 29.7,64.7 29.7,64.6 29.7,64.4 29.7,57.7 26.5,63.2 29.7,72.4 29.7,72.4 	"/>
	<polygon class="st7" points="34.1,57.7 34,57.7 34,57.7 34,57.7 	"/>
	<polygon class="st7" points="34,57.8 34,57.7 32.5,53.9 29.7,57.7 29.7,64.4 	"/>
	<polygon class="st8" points="34,57.7 34,57.7 34,57.7 35.4,50.6 32.5,53.9 32.5,53.9 	"/>
	<path class="st9" d="M34,57.7L34,57.7L34,57.7z"/>
	<polygon class="st9" points="34,57.7 38.2,52.9 35.4,50.6 	"/>
	<polygon class="st10" points="38.5,52.4 43,55.2 40.8,46.8 35.4,50.6 	"/>
	<path class="st10" d="M43,55.2L43,55.2L43,55.2z"/>
	<polygon class="st11" points="39.6,57.7 43,55.2 43,55.2 43,55.2 38.5,52.4 38.5,52.4 38.2,52.9 34,57.7 34,57.7 	"/>
	<polygon class="st12" points="34.1,57.7 38.5,60.8 39.6,57.7 34,57.7 34,57.7 34,57.7 	"/>
	<polygon class="st13" points="38.5,60.8 34,57.7 34,57.7 34,57.8 35.8,64.4 	"/>
	<polygon class="st14" points="29.8,64.5 29.8,64.7 35.8,64.7 35.8,64.5 34,57.9 	"/>
	<polygon class="st14" points="29.7,64.6 29.7,64.7 29.7,64.7 	"/>
	<polygon class="st15" points="29.7,72.4 33.4,70.2 29.7,64.8 	"/>
	<polygon class="st15" points="29.8,64.7 29.8,64.5 29.7,64.4 29.7,64.6 29.7,64.7 	"/>
	<polygon class="st16" points="35.8,64.7 29.8,64.7 29.7,64.7 29.7,64.7 29.7,64.8 33.4,70.2 33.4,70.1 	"/>
	<polygon class="st17" points="35.8,64.4 41.6,65.6 38.5,60.8 	"/>
	<polygon class="st18" points="36.6,67.8 41.6,65.6 35.8,64.4 35.8,64.5 35.8,64.7 33.4,70.1 	"/>
	<polygon class="st19" points="36.6,67.8 33.4,70.1 35.8,73.5 	"/>
	<polygon class="st20" points="36.6,67.8 41,70.8 41.6,65.6 	"/>
	<polygon class="st18" points="36.6,67.8 35.8,73.5 41,70.8 	"/>
	<polygon class="st21" points="41,70.8 38.4,75.2 43.8,75.6 	"/>
	<polygon class="st22" points="41,70.8 35.8,73.5 38.4,75.2 	"/>
	<polygon class="st21" points="38.3,75.2 38.4,75.2 38.4,75.2 35.8,73.5 34,78.8 	"/>
	<path class="st23" d="M31.6,75.3L31.6,75.3l4.2-1.8l-6.2-1l0.2,0.3C30.2,73.6,31.6,75.3,31.6,75.3z"/>
	<polygon class="st18" points="33.4,70.1 33.4,70.2 29.7,72.4 29.7,72.4 29.7,72.5 35.8,73.5 	"/>
	<polygon class="st13" points="34,78.8 35.8,73.5 31.6,75.3 34,78.8 	"/>
	<path class="st24" d="M31.6,75.3c0,0-1.4-1.6-1.8-2.5c-0.1-0.2-0.2-0.2-0.2-0.3l-2.2,5L31.6,75.3z"/>
	<polygon class="st25" points="27.4,77.5 29.7,72.5 26.4,76 	"/>
	<polygon class="st20" points="31.6,75.3 27.4,77.5 30.2,80.8 	"/>
	<polygon class="st18" points="30.2,80.8 30.7,80.4 33.9,78.9 33.9,78.8 34,78.8 31.6,75.3 31.6,75.3 	"/>
	<polygon class="st23" points="37.7,81.3 37.8,81.2 37.8,81.4 38.3,81.5 38.3,75.2 34,78.8 34,78.8 33.9,78.8 33.9,78.9 34,78.8 	
		"/>
	<polygon class="st17" points="38.3,81.5 38.6,81.5 43.8,75.6 38.4,75.2 38.3,75.2 	"/>
	<polygon class="st26" points="43.9,82.4 44.1,82.4 44.1,75.9 43.9,75.7 38.8,81.6 43.5,82.4 	"/>
	<polygon class="st27" points="48.5,81.4 44.1,75.9 44.1,82.4 	"/>
	<polygon class="st28" points="43.8,75.6 43.9,75.7 44.1,75.9 48.5,81.4 53.2,76 	"/>
	<polygon class="st28" points="43.8,75.6 53.2,76 47.2,68.3 	"/>
	<polygon class="st23" points="47.2,68.3 41,70.8 43.8,75.6 	"/>
	<polygon class="st21" points="41.6,65.6 41,70.8 47.2,68.3 	"/>
	<polygon class="st18" points="43.4,60.8 43.2,60.6 41.6,65.6 47.2,68.3 	"/>
	<polygon class="st29" points="42.6,60.1 38.5,60.8 41.6,65.6 43.2,60.6 	"/>
	<polygon class="st28" points="39.6,57.7 38.5,60.8 42.6,60.1 	"/>
	<polygon class="st30" points="42.6,60.1 43.2,60.6 43.4,60.8 46.2,56.4 46,56.3 46.1,56.2 44.6,55.7 43,55.2 39.6,57.7 	"/>
	<polygon class="st31" points="50.3,60 50.3,60 50.2,60 46.2,56.4 43.4,60.8 	"/>
	<polygon class="st32" points="52.1,68.8 50.3,60 43.4,60.8 47.2,68.3 	"/>
	<polygon class="st33" points="53.2,76 52.1,68.8 47.2,68.3 	"/>
	<polygon class="st34" points="53.2,76 53.4,75.9 58.1,70.5 57.6,70.4 57.6,70.4 57.6,70.4 52.1,68.8 	"/>
	<polygon class="st34" points="58.4,71.7 58.4,70.6 58.2,70.5 58.3,71.7 	"/>
	<polygon class="st35" points="58.1,70.5 58.2,70.4 58.2,70.5 58.4,70.6 58.4,70.4 59.2,70.4 59.1,70.3 57.6,70.4 	"/>
	<polygon class="st35" points="52.1,68.8 57.6,70.4 56.9,63.2 50.3,60 	"/>
	<polygon class="st16" points="57.6,70.4 57.6,70.4 57.6,70.4 59.1,70.3 61.1,70.1 56.9,63.2 	"/>
	<polygon class="st36" points="50.6,59.9 50.3,60 56.9,63.2 54.9,57.7 53.7,58.3 	"/>
	<polygon class="st37" points="50.2,60 50.2,54.2 46.1,56.2 46,56.3 46.2,56.4 	"/>
	<polygon class="st38" points="50.2,60 50.3,60 50.4,59.9 53.7,58.2 54.6,57.7 53.1,56.5 50.2,54.2 	"/>
	<polygon class="st9" points="57.9,64.5 56.9,56.3 54.9,57.7 	"/>
	<polygon class="st39" points="58,65.1 61.1,70.1 60.6,64.1 56.9,56.3 57.9,64.5 	"/>
	<polygon class="st40" points="43,55.2 43,55.2 49,47.3 40.8,46.8 	"/>
	<polygon class="st6" points="56.9,56.3 53.2,51.4 54.9,57.7 	"/>
	<polygon class="st41" points="58.4,70.6 58.4,71.7 58.4,72.5 58.7,76.1 59.8,76.8 61.2,77.4 61.2,70.2 59.2,70.4 58.4,70.4 	"/>
	<polygon class="st42" points="53.2,76.1 53.2,76.1 58.7,76.1 58.4,72.5 58.3,71.7 58.2,70.5 58.2,70.4 58.1,70.5 53.4,75.9 	"/>
	<polygon class="st43" points="61.1,77.6 61,77.6 61,77.6 	"/>
	<polygon class="st43" points="53.2,76.1 58.2,83 61,77.5 59.8,76.8 58.7,76.1 	"/>
	<polygon class="st44" points="59.6,85 61,77.6 61,77.6 61.1,77.5 61,77.5 58.2,83 	"/>
	<polygon class="st45" points="53.2,76 52.6,84 58.2,83 53.2,76.1 53.2,76.1 	"/>
	<polygon class="st46" points="48.5,81.4 52.2,84.1 52.6,84 53.2,76 	"/>
	<polygon class="st47" points="58.2,83 55.9,90 59.6,85 	"/>
	<polygon class="st48" points="52.6,84 52.2,84.1 52.6,84.4 55.9,90 58.2,83 	"/>
	<polygon class="st49" points="59.5,93.7 60,93.4 60,94.3 60.2,94.4 59.6,85 55.9,90 	"/>
	<polygon class="st46" points="59.5,93.7 59.6,93.8 57.1,95.8 59.9,100.3 60,100 60,94.3 60,93.4 	"/>
	<polygon class="st50" points="57.1,95.8 55.9,90 54.9,96 	"/>
	<polygon class="st51" points="57.1,95.8 59.6,93.8 59.5,93.7 55.9,90 	"/>
	<polygon class="st52" points="52.1,91.9 55.9,90 52.6,84.4 	"/>
	<polygon class="st14" points="54.9,96 55.9,90 52.1,91.9 	"/>
	<polygon class="st53" points="46.2,88.4 52.1,91.9 52.6,84.4 	"/>
	<polygon class="st54" points="48.5,81.4 46.2,88.4 52.6,84.4 52.2,84.1 	"/>
	<polygon class="st55" points="43.9,82.4 43.8,82.4 46.2,88.4 48.5,81.4 44.1,82.4 	"/>
	<polygon class="st18" points="39.6,88 39.6,88 39.6,88.1 43.8,82.4 43.5,82.4 38.8,81.6 38.6,81.5 38.3,81.5 37.8,81.4 	"/>
	<polygon class="st31" points="39.6,88.1 46.2,88.4 43.8,82.4 	"/>
	<polygon class="st31" points="43.4,93.4 46.2,88.4 39.6,88.1 	"/>
	<polygon class="st56" points="47.8,96 52.1,91.9 46.2,88.4 	"/>
	<polygon class="st55" points="47.8,96 46.2,88.4 43.4,93.4 	"/>
	<polygon class="st35" points="54.9,96 52.1,91.9 50.9,100.7 	"/>
	<polygon class="st57" points="50.9,100.7 52.1,91.9 47.8,96 	"/>
	<polygon class="st58" points="42.9,100 50.9,100.7 47.8,96 	"/>
	<polygon class="st13" points="42.9,100 47.8,96 43.4,93.4 	"/>
	<polygon class="st59" points="38.8,96.3 42.9,100 43.4,93.4 	"/>
	<polygon class="st60" points="38.8,96.2 38.8,96.3 43.4,93.4 37.3,91.2 37.3,91.2 	"/>
	<polygon class="st29" points="39.6,88.1 37.1,90.8 37.4,91.2 37.3,91.2 43.4,93.4 	"/>
	<polygon class="st18" points="39.6,88 35,88 34.9,88 35,88 35,88.1 37,90.8 39.6,88 	"/>
	<polygon class="st29" points="35,88 39.6,88 37.8,81.4 37.8,81.2 37.7,81.3 37.8,81.4 	"/>
	<polygon class="st17" points="34.9,88 35,88 37.8,81.4 37.7,81.3 34,78.8 34.9,88 	"/>
	<polygon class="st17" points="34.9,88 34,78.8 33.9,78.9 30.7,80.4 30.2,80.8 30.7,86.3 31,86.4 	"/>
	<polygon class="st61" points="30.6,86.2 30.1,80.8 27.4,77.6 28.1,83.5 27.3,84 27.3,84 27.4,84 27.6,84 	"/>
	<polygon class="st2" points="28.1,83.5 27.4,77.6 27.4,77.5 26.4,76 16.3,89.9 16.2,90.4 27.3,84 	"/>
	<polygon class="st38" points="31,91.8 31,86.4 30.7,86.3 30.6,86.2 27.6,84 27.4,84 25.6,85 27.6,93.3 30.7,91.9 	"/>
	<polygon class="st62" points="37.2,91.2 37.3,91.2 37.3,91.2 37.3,91.2 37.4,91.2 37.1,90.8 37,90.8 35,88.1 35,88 34.9,88 
		34.9,88 31,86.4 31,91.8 	"/>
	<polygon class="st63" points="38.8,96.2 37.3,91.2 37.3,91.2 37.2,91.2 37.3,91.2 35,94.3 35.4,96.2 	"/>
	<polygon class="st21" points="37.3,91.2 37.2,91.2 31,91.8 30.7,91.9 34.9,94.4 35,94.3 	"/>
	<polygon class="st64" points="29.1,95.1 29.9,96 34.9,94.4 30.7,91.9 27.6,93.3 27.4,93.4 27.5,93.6 27.7,93.4 	"/>
	<polygon class="st16" points="29.9,96 29.9,96 29.9,96.2 33.8,99.8 34.1,99.6 34.9,94.4 	"/>
	<polygon class="st45" points="34.9,94.4 34.1,99.6 34.1,99.6 37.5,102.8 	"/>
	<polygon class="st65" points="38.8,96.2 35.4,96.2 37.5,102.8 37.5,102.8 	"/>
	<polygon class="st63" points="37.5,102.8 37.6,102.9 42.9,100 38.8,96.3 	"/>
	<polygon class="st12" points="45,106 50.9,100.7 42.9,100 	"/>
	<polygon class="st66" points="40.2,105.4 45,106 42.9,100 	"/>
	<polygon class="st20" points="37.6,102.9 40.2,105.4 42.9,100 	"/>
	<polygon class="st20" points="54.6,101.2 54.7,101.2 59.8,100.7 59.9,100.3 57.1,95.8 	"/>
	<polygon class="st21" points="54.9,96 50.9,100.7 51,100.7 51,100.7 54.6,101.2 57.1,95.8 	"/>
	<polygon class="st67" points="54.8,101.2 54.6,101.4 54.1,108.2 59.7,101.2 59.8,100.7 54.7,101.2 	"/>
	<polygon class="st21" points="52.1,103.7 54.6,101.2 54.6,101.4 54.8,101.2 54.7,101.2 54.6,101.2 51,100.7 51,100.7 51,101 	"/>
	<polygon class="st68" points="50.9,100.7 45,106 48.5,113.2 	"/>
	<polygon class="st35" points="40.2,105.4 48.5,113.2 45,106 	"/>
	<polygon class="st21" points="54.6,101.4 54.6,101.2 52.1,103.7 54,108.4 54.1,108.2 	"/>
	<polygon class="st7" points="52.1,103.7 51,101 50.9,100.7 48.5,113.2 54,108.4 	"/>
	<polygon class="st69" points="54,108.4 57,111.7 59.7,101.2 54.1,108.2 	"/>
	<path class="st70" d="M59.6,114.6L59.6,114.6L59.6,114.6z"/>
	<polygon class="st70" points="59.8,100.7 59.7,101.2 57,111.7 59.6,114.6 59.6,113.7 60.2,99.2 60,100 59.9,100.3 	"/>
	<polygon class="st71" points="57,111.7 54,108.4 48.5,113.2 56.6,121.8 59.6,114.6 59.6,114.6 59.6,114.6 59.6,114.6 	"/>
	<polygon class="st3" points="25.4,85 16.2,90.4 16.1,90.6 27.4,93.4 	"/>
	<polygon class="st72" points="16.1,90.6 15.8,91.2 17,102.7 27.4,93.4 	"/>
	<polygon class="st3" points="15.8,91.2 15.3,91.2 12.8,94.4 17,102.7 15.8,91.2 	"/>
	<polygon class="st5" points="29.9,96.2 29.9,96 29.9,96 29.1,95.1 27.7,93.4 27.5,93.6 17.3,102.7 27.4,104 29.7,96 	"/>
	<polygon class="st73" points="33.8,99.8 29.9,96.2 29.7,96 27.4,104 27.4,104 	"/>
	<polygon class="st70" points="23.4,118.7 27.4,104 17,102.7 23.2,118.4 	"/>
	<polygon class="st3" points="8.1,100.8 13.1,106.8 17,102.7 12.8,94.4 0.5,91.5 0.5,93.2 8.1,102.6 	"/>
	<polygon class="st74" points="17,102.7 13.1,106.8 23.2,118.4 	"/>
	<polygon class="st70" points="8,102.7 0.5,93.4 0.5,105 8.1,104.8 	"/>
	<polygon class="st70" points="5.8,117.1 5.8,117.2 8.3,115.3 8.2,104.8 0.5,105 0.5,107 8.2,115.1 	"/>
	<polygon class="st75" points="34.1,99.6 34.1,99.6 34.1,99.6 33.8,99.8 27.4,104 23.4,118.7 23.4,118.8 33.3,115.1 	"/>
	<polygon class="st72" points="31.3,124.9 33.3,115.1 23.4,118.8 23.5,118.8 23.4,118.8 30.9,125.3 	"/>
	<polygon class="st3" points="18.6,128.6 25.4,128.1 23.4,118.9 23.3,118.9 18.5,128.5 	"/>
	<polygon class="st3" points="30.2,125.9 30.9,125.3 23.4,118.8 23.4,118.9 25.4,128.1 	"/>
	<polygon class="st3" points="8.2,115.1 0.5,107 0.5,121.1 5.8,117.1 	"/>
	<polygon class="st3" points="21,133.9 21,133.7 8.9,134.6 8.9,135 18.3,139.8 	"/>
	<polygon class="st3" points="8.9,135 8.6,134.6 8.6,134.7 8.9,135 8.9,135.1 8.9,135.2 	"/>
	<polygon class="st70" points="21.1,133.7 21.1,133.7 25.4,128.1 18.6,128.6 21,133.7 21,133.7 21,133.7 21,133.9 21,133.9 	"/>
	<polygon class="st70" points="21,133.7 18.6,128.6 18.5,128.5 18.4,128.6 18.1,128.5 8.9,134.6 8.9,134.6 21,133.7 	"/>
	<polygon class="st76" points="50.9,139 51,138.7 51,139 55.4,124.8 47.9,123.3 	"/>
	<polygon class="st74" points="55.4,124.8 48.5,113.2 47.9,123.3 	"/>
	<polygon class="st72" points="47.9,123.3 48.5,113.2 41.6,116.6 	"/>
	<polygon class="st77" points="43.5,108.5 45.4,110.2 41.6,116.6 48.5,113.2 	"/>
	<polygon class="st78" points="45.4,110.2 43.5,108.5 40.2,105.4 33.3,115.1 	"/>
	<polygon class="st41" points="33.3,115.1 41.6,116.6 45.4,110.2 	"/>
	<polygon class="st79" points="37.5,102.8 37.5,102.8 37.5,102.8 37.5,102.8 34.1,99.6 33.3,115.1 40.2,105.4 37.6,102.9 	"/>
	<polygon class="st39" points="37,124.9 37,124.9 37.1,124.9 37.1,124.9 37.1,124.9 37.3,124.9 33.3,115.1 31.3,124.9 31.3,124.9 	
		"/>
	<polygon class="st41" points="37.3,124.9 41.6,116.6 33.3,115.1 	"/>
	<polygon class="st80" points="43.4,132.9 47.9,123.3 41.6,116.6 37.3,124.9 	"/>
	<polygon class="st70" points="50.9,139.2 50.9,139 47.9,123.3 43.4,132.9 	"/>
	<polygon class="st70" points="42.6,141.4 50.9,139.3 50.9,139.2 43.4,132.9 	"/>
	<polygon class="st76" points="37.1,125 37.1,124.9 37.1,124.9 37.1,124.9 37.1,125.1 	"/>
	<polygon class="st76" points="37.9,131.5 37.9,135.6 37.7,135.4 40.2,138.4 42.5,141.2 43.3,132.9 37.3,125.2 37.8,131.3 
		37.1,130.9 37.1,131 	"/>
	<polygon class="st5" points="37.1,125.1 33.3,128.8 37.1,130.9 37.8,131.3 37.3,125.2 37.3,124.9 37.1,125 	"/>
	<polygon class="st81" points="28.5,128.5 28.5,128.5 33.3,128.5 37,124.9 37,124.9 31.3,124.9 31.3,124.9 30.9,125.3 30.2,125.9 
		31.1,125.5 	"/>
	<polygon class="st82" points="26.1,131.2 26.2,131 28.1,128.2 28.5,128.5 31.1,125.5 30.2,125.9 25.4,128.1 21.1,133.7 	"/>
	<polygon class="st70" points="21.1,139.6 21.1,139.6 21.1,133.7 21.1,133.7 21,133.9 18.3,139.8 18.4,139.9 18.2,140.1 	"/>
	<path class="st83" d="M23.9,136.3L23.9,136.3L23.9,136.3z"/>
	<polygon class="st83" points="23.9,136.3 21.1,133.7 21.1,139.6 	"/>
	<polygon class="st72" points="23.9,136.3 23.9,136.3 24,136.1 23.9,136.1 26.1,131.2 21.1,133.7 21.1,133.7 21.1,133.7 	"/>
	<polygon class="st3" points="24,136.1 24.9,135.5 29,132.1 31.2,131.3 31.5,131.1 31.4,131 26.2,131 26.1,131.2 23.9,136.1 	"/>
	<polygon class="st70" points="31.7,131.1 32.3,131.3 34.2,132.9 34.2,132.9 36.8,134.8 36.9,134.5 37.7,135.4 37.9,135.6 
		37.9,131.5 37.1,131 33.4,128.9 29,128.9 31.7,131 31.4,131 31.5,131.1 31.6,131.2 	"/>
	<polygon class="st84" points="36.6,140.5 37,140.4 37,140.4 	"/>
	<polygon class="st84" points="36.6,139.9 36.7,140 37,140.1 36.6,139.8 	"/>
	<polygon class="st84" points="36.9,134.5 36.8,134.8 37.1,135 37.1,135.1 37.1,140.2 37.1,140.3 40.2,138.4 37.7,135.4 	"/>
	<polygon class="st85" points="31.4,131 31.7,131 29,128.9 28.5,128.5 28.5,128.5 28.1,128.2 26.2,131 	"/>
	<polygon class="st83" points="32.3,131.3 31.7,131.1 31.6,131.2 31.2,131.3 29,132.1 30.1,134.6 30.2,134.6 30.3,134.8 	"/>
	<polygon class="st83" points="37.1,135 36.8,134.8 34.2,132.9 33.3,135.8 33.3,135.8 33.3,135.8 36.6,139.8 37,140.1 37.1,140.2 
		37.1,135.1 	"/>
	<polygon class="st86" points="33.3,135.8 34.2,132.9 34.2,132.9 32.3,131.3 30.3,134.8 30.8,135.2 	"/>
	<polygon class="st72" points="29,132.1 24.9,135.5 23.9,136.3 23.9,136.3 23.9,136.3 24,136.3 30.1,134.6 	"/>
	<polygon class="st76" points="33.2,135.8 30.8,135.2 36.7,140 36.6,139.9 	"/>
	<polygon class="st3" points="31.8,142.9 36.6,140.5 37,140.4 37.1,140.3 37.1,140.3 37.1,140.2 37,140.1 36.7,140 30.8,135.2 
		30.8,135.2 30.3,134.8 30.2,134.6 30.1,134.6 24,136.3 24,141.1 24.9,141.6 26.2,140.3 	"/>
	<polygon class="st83" points="31.8,145.2 31.8,142.9 31.8,142.9 26.2,140.3 24.9,141.6 31.4,145.2 31.7,145.3 	"/>
	<polygon class="st87" points="31.8,142.9 31.8,145.2 37,140.4 36.6,140.5 	"/>
	<polygon class="st70" points="40.2,138.4 37.1,140.3 37.1,140.3 42.6,141.4 42.5,141.2 	"/>
	<polygon class="st83" points="37.1,140.3 37,140.4 37,140.4 31.8,145.2 31.7,145.3 31.7,145.3 31.7,145.3 42.6,141.4 	"/>
	<polygon class="st88" points="18.5,141 31.5,145.2 31.4,145.2 24.9,141.6 24,141.1 24,142.5 21.2,139.7 21.1,139.6 21.1,139.6 
		18.2,140.1 18.2,140.2 18.2,140.9 18.6,141.1 	"/>
	<polygon class="st15" points="21.2,139.6 21.2,139.7 24,142.5 24,141.1 24,136.3 	"/>
	<polygon class="st73" points="18.2,139.9 18.2,140.2 18.2,140.1 18.4,139.9 18.3,139.8 18.3,139.8 8.9,135 15.7,145.8 	"/>
	<polygon class="st89" points="15.7,145.8 8.9,135 8.9,135.2 8.9,135.3 8.9,141.8 15.7,145.9 	"/>
	<polygon class="st90" points="1.3,141.3 1.6,141.4 1.6,141.4 1.6,141.4 8.9,141.8 8.9,141.8 8.9,135.3 8.9,135.1 8.9,135 
		8.6,134.7 3.5,128.1 0.5,126.5 0.5,140.2 1.6,141.2 	"/>
	<polygon class="st16" points="1.6,141.2 0.5,140.2 0.5,141.3 1.3,141.3 	"/>
	<polygon class="st91" points="8.9,141.8 1.6,141.4 8.2,148.5 	"/>
	<polygon class="st84" points="0.5,141.6 0.5,143.1 1.5,141.4 	"/>
	<polygon class="st92" points="1.6,141.4 1.6,141.4 0.5,143.2 0.5,144.5 8.2,148.5 	"/>
	<polygon class="st93" points="0.5,144.5 0.5,148.1 8.2,148.5 	"/>
	<polygon class="st10" points="15.7,146 15.7,145.9 8.9,141.8 13.4,150.3 15.8,146 	"/>
	<polygon class="st94" points="8.9,141.8 8.2,148.5 13.4,150.3 	"/>
	<polygon class="st82" points="13.4,150.3 8.2,148.5 11.6,153.3 	"/>
	<polygon class="st83" points="8.2,148.5 8.2,148.5 0.5,148.1 0.5,151.3 1,152.1 	"/>
	<polygon class="st3" points="1,152.1 0.5,151.3 0.5,156.8 0.6,156.9 	"/>
	<polygon class="st76" points="11.6,153.3 8.2,148.5 1,152.1 8.9,153 	"/>
	<polygon class="st72" points="7.6,154.3 8.9,153 1,152.1 4.8,155.3 	"/>
	<polygon class="st3" points="4.6,155.4 0.8,153.9 0.6,156.9 	"/>
	<polygon class="st82" points="4.6,155.4 4.8,155.3 1,152.1 0.8,153.9 	"/>
	<polygon class="st51" points="3.4,161.1 0.6,156.9 0.5,157.1 0.5,162.4 0.6,162.4 	"/>
	<polygon class="st95" points="6.1,155.8 7.6,154.3 4.8,155.3 4.6,155.4 0.6,156.9 3.4,161.1 	"/>
	<polygon class="st96" points="7.6,154.3 6.1,155.8 9.5,158.7 8.9,153 	"/>
	<polygon class="st97" points="6.1,155.8 3.4,161.1 9.5,158.7 	"/>
	<polygon class="st98" points="3.4,161.1 7,166.1 9.5,158.7 	"/>
	<polygon class="st72" points="0.6,162.4 7,166.1 3.4,161.1 	"/>
	<polygon class="st99" points="0.6,162.4 0.5,162.4 0.5,166.9 7,166.1 	"/>
	<polygon class="st100" points="11.6,153.3 9.5,158.7 17,156.5 	"/>
	<polygon class="st101" points="8.9,153 9.5,158.7 11.6,153.3 	"/>
	<polygon class="st45" points="20,151.7 11.6,153.3 17,156.5 	"/>
	<polygon class="st96" points="13.4,150.3 11.6,153.3 20,151.7 	"/>
	<polygon class="st102" points="15.8,146 15.8,146 13.4,150.3 20,151.7 	"/>
	<polygon class="st103" points="23.8,146.9 23.8,146.9 15.8,146 20,151.7 23.9,146.9 	"/>
	<polygon class="st73" points="15.8,146 15.8,146 23.8,146.9 23.8,146.9 18.2,141 18.2,140.9 18.2,140.2 18.2,139.9 15.7,145.8 
		15.7,145.9 15.7,145.9 15.7,146 	"/>
	<polygon class="st89" points="31.7,145.3 31.5,145.2 18.5,141 18.6,141.1 24,146.9 31.7,145.3 	"/>
	<polygon class="st70" points="23.9,146.9 29.7,153.3 29.8,153.3 31.7,145.3 24,146.9 	"/>
	<polygon class="st70" points="31.7,145.3 29.8,153.3 36.8,158 	"/>
	<polygon class="st70" points="29.7,153.3 27.2,156 33,162.7 36.8,158 29.8,153.3 	"/>
	<polygon class="st64" points="39.6,168.9 36.8,158 33,162.7 	"/>
	<polygon class="st3" points="36.8,158 37.2,158.1 42.9,160.6 42.6,151 41.1,149.6 41.1,149.6 36.2,147.3 	"/>
	<polygon class="st72" points="31.7,145.3 36.8,158 36.2,147.3 	"/>
	<polygon class="st70" points="31.7,145.3 31.7,145.3 36.2,147.3 42.6,141.4 	"/>
	<polygon class="st3" points="36.2,147.3 41.1,149.6 49.1,150.1 42.6,141.4 	"/>
	<polygon class="st74" points="49.1,150.1 50.9,139.3 42.6,141.4 	"/>
	<polygon class="st70" points="51,139 51,138.7 50.9,139 50.9,139.2 50.9,139.3 49.1,150.1 49.9,158 53.4,152.1 53.7,149.6 
		51,139.3 	"/>
	<polygon class="st70" points="49.9,158 52.5,160.1 53.4,152.1 	"/>
	<polygon class="st72" points="41.1,149.6 41.1,149.6 42.6,151 42.6,150.9 49.9,158 49.1,150.1 	"/>
	<polygon class="st76" points="42.6,150.9 42.6,151 42.9,160.6 43.4,160.9 49.9,158 	"/>
	<polygon class="st104" points="43.4,160.9 43.4,160.9 43.4,161 52.5,160.1 49.9,158 	"/>
	<polygon class="st64" points="50,170.8 52.5,160.1 45.5,167.5 	"/>
	<polygon class="st105" points="45.5,167.5 52.5,160.1 43.4,161 	"/>
	<polygon class="st106" points="42.9,160.6 37.2,158.1 36.8,158 39.6,168.9 43.4,160.9 43.4,160.9 	"/>
	<polygon class="st107" points="39.6,168.9 45.5,167.5 43.4,161 43.4,160.9 	"/>
	<polygon class="st108" points="27.2,156 29.7,153.3 23.9,146.9 	"/>
	<polygon class="st109" points="23.9,146.9 22.3,157.4 27.2,156 	"/>
	<polygon class="st108" points="20,151.7 22.3,157.4 23.9,146.9 	"/>
	<polygon class="st61" points="17,156.5 22.3,157.4 20,151.7 	"/>
	<polygon class="st90" points="9.5,158.7 17.8,166.1 17,156.5 	"/>
	<polygon class="st110" points="17.7,166.1 9.5,158.8 7.1,166.1 7.4,166.2 17.1,166.2 	"/>
	<polygon class="st111" points="17,156.5 17.8,166.1 22.3,157.4 	"/>
	<polygon class="st9" points="22.3,157.4 17.8,166.1 26.2,167.5 	"/>
	<polygon class="st112" points="26.2,167.5 33,162.7 27.2,156 	"/>
	<polygon class="st113" points="22.3,157.4 26.2,167.5 27.2,156 	"/>
	<polygon class="st114" points="7.4,166.2 10.8,167.5 17.1,166.2 	"/>
	<polygon class="st1" points="15.8,174.9 26.2,167.5 17.8,166.1 	"/>
	<path class="st115" d="M15.8,174.9L15.8,174.9L15.8,174.9z"/>
	<polygon class="st115" points="17.8,166.1 17.7,166.1 17.1,166.2 10.8,167.5 15.8,174.9 15.8,174.9 	"/>
	<polygon class="st70" points="8.9,174.3 10.8,167.5 7.4,166.2 7.1,166.1 7,166.1 	"/>
	<polygon class="st116" points="15.8,174.9 10.8,167.5 8.9,174.3 10.2,180.5 10.2,180.6 	"/>
	<polygon class="st117" points="36.8,180.1 39.6,168.9 33,162.7 	"/>
	<polygon class="st118" points="36.8,180.1 45.5,167.5 39.6,168.9 	"/>
	<polygon class="st119" points="33,162.7 28.7,177.7 36.8,180.1 	"/>
	<polygon class="st120" points="26.2,167.5 28.7,177.7 33,162.7 	"/>
	<polygon class="st121" points="15.8,174.9 15.8,174.9 15.8,174.9 28.7,177.7 26.2,167.5 	"/>
	<polygon class="st45" points="16.7,186.5 28.7,177.7 19.8,175.8 	"/>
	<polygon class="st122" points="15.8,174.9 15.8,174.9 16.3,182.2 16.7,186.5 19.8,175.8 	"/>
	<polygon class="st123" points="16.3,182.2 15.8,174.9 10.2,180.6 10.3,180.7 10.2,180.7 	"/>
	<polygon class="st124" points="16.7,186.5 16.3,182.2 10.2,180.7 10.2,180.7 10.1,184.6 10.1,186 10.2,186.1 	"/>
	<polygon class="st125" points="6.2,175.8 6.3,175.8 6.3,175.8 10.2,180.5 8.9,174.3 	"/>
	<polygon class="st126" points="8.9,174.3 7,166.1 2.1,172.6 6.2,175.8 	"/>
	<polygon class="st83" points="7,166.1 0.5,166.9 0.5,169.7 2.1,172.6 	"/>
	<polygon class="st83" points="0.5,169.7 0.5,170.9 2.1,172.6 	"/>
	<polygon class="st82" points="2.1,172.6 2.9,178.5 3,178.5 6.2,175.8 	"/>
	<polygon class="st70" points="2.1,172.6 0.5,170.9 0.5,177.2 2.9,178.5 	"/>
	<polygon class="st127" points="10.1,180.7 10.2,180.7 10.2,180.7 10.3,180.7 10.2,180.6 10.2,180.5 6.3,175.8 6.3,175.8 3,178.5 
		3,178.5 2.9,178.5 0.5,177.2 0.5,182.5 	"/>
	<polygon class="st128" points="10.1,186 10.1,184.6 10.1,180.7 10.1,180.7 0.5,182.5 0.5,182.9 4.1,184.2 	"/>
	<polygon class="st129" points="10.2,186.1 10.1,186 4.1,184.2 4.7,187.8 	"/>
	<polygon class="st130" points="4.6,188.8 3.4,188.2 4.7,187.8 4.1,184.2 0.5,182.9 0.5,188.8 4.5,188.9 	"/>
	<polygon class="st131" points="4.5,188.9 0.5,188.8 0.5,194.9 	"/>
	<polygon class="st132" points="4.6,188.8 4.5,188.9 0.5,194.9 0.5,196.6 12.2,192.5 	"/>
	<polygon class="st133" points="18.6,197.2 21.5,197 12.2,192.5 0.5,196.6 0.5,197.3 1.3,197.3 	"/>
	<polygon class="st134" points="36.8,180.1 28.7,177.7 34.2,187.3 36.6,180.7 	"/>
	<polygon class="st135" points="21.5,197 29.5,194.4 23.8,190.7 	"/>
	<polygon class="st136" points="28.7,177.7 29.5,194.4 34.2,187.3 	"/>
	<polygon class="st137" points="23.8,190.7 29.5,194.4 28.7,177.7 	"/>
	<polygon class="st138" points="29.5,194.4 41.6,187.2 34.2,187.3 	"/>
	<circle class="st118" cx="44.5" cy="181.9" r="0"/>
	<polygon class="st118" points="42.7,181.5 45.5,167.5 36.8,180.1 	"/>
	<circle class="st108" cx="44.5" cy="181.9" r="0"/>
	<polygon class="st108" points="34.2,187.3 42.4,183 42.7,181.5 36.8,180.1 	"/>
	<polygon class="st139" points="44.5,181.9 44.5,181.9 49.6,172.8 50,170.8 45.5,167.5 42.7,181.5 42.4,183 42.4,183 41.6,187.2 	
		"/>
	<path class="st75" d="M15.2,91.2L15.2,91.2h0.6v-0.1l0.2-0.6l0.1-0.2l0,0l0.2-0.6l1.7-4.6c-0.1,0-0.2,0-0.2-0.1
		c-7.8-1.8-14.2-1.7-17.3-1.4v3.4l2.9,4.1H15.2z"/>
	<polygon class="st136" points="42.4,183 42.4,183 34.2,187.3 41.6,187.2 	"/>
	<polygon class="st140" points="10.2,186.1 4.7,187.8 3.4,188.2 4.6,188.8 12.2,192.5 21.5,197 	"/>
	<polygon class="st65" points="16.7,186.5 21.5,197 28.7,177.7 	"/>
	<polygon class="st141" points="10.2,186.1 21.5,197 16.7,186.5 	"/>
	<polygon class="st122" points="0.6,197.3 15.7,198.5 15,198.5 15.7,198.6 21.5,197.1 18.6,197.2 1.3,197.3 	"/>
	<polygon class="st116" points="0.5,197.5 0.5,199.4 7.5,199.3 	"/>
	<polygon class="st122" points="8,199.5 15,198.5 15.7,198.5 0.6,197.3 0.5,197.3 0.5,197.5 7.5,199.3 	"/>
	<polygon class="st10" points="8.9,134.6 8.9,134.6 8.9,134.6 8.9,135 	"/>
	<polygon class="st40" points="44.6,55.7 49,50 52.3,53.8 52.9,56.3 53.1,56.4 54.9,57.7 53.2,51.4 52.9,50 49,47.3 43,55.2 	"/>
	<polygon class="st76" points="51,139.3 53.7,149.6 54.5,142.5 55.4,124.8 51,139 	"/>
	<polygon class="st76" points="54.5,142.5 53.7,149.6 53.4,152.1 52.5,160.1 59.3,154.7 	"/>
	<polygon class="st80" points="54.5,142.5 59.3,130.9 56.6,121.8 55.4,124.8 	"/>
	<polygon class="st142" points="59.3,154.7 60.2,145.9 54.5,142.5 	"/>
	<polygon class="st105" points="60.2,145.9 59.3,130.9 54.5,142.5 	"/>
	<polygon class="st118" points="44.5,181.9 44.5,181.9 44.5,181.9 41.6,187.2 47.8,180.7 47.2,177.1 	"/>
	<polygon class="st118" points="47.2,177.1 47.8,180.7 49.6,172.8 	"/>
	<polygon class="st120" points="49.6,172.8 49.6,172.8 47.8,180.7 54.1,170.5 52.5,160.1 50,170.8 	"/>
	<polygon class="st70" points="8.2,117.2 8.4,121.8 8.3,115.3 5.8,117.2 0.5,121.4 0.5,126.4 3.6,128 	"/>
	<polygon class="st3" points="8.4,122.3 8.6,122.4 23.4,118.8 23.3,118.9 23.4,118.9 23.4,118.8 23.5,118.8 23.4,118.8 23.4,118.7 
		23.2,118.4 13.1,106.8 8.1,100.8 8.1,102.6 8.2,104.8 8.3,115.3 8.4,121.8 	"/>
	<polygon class="st143" points="18.1,128.5 8.5,122.6 8.9,134.6 8.9,134.6 	"/>
	<polygon class="st143" points="8.6,122.4 8.4,122.3 8.5,122.4 	"/>
	<polygon class="st70" points="18.1,128.5 18.4,128.6 18.5,128.5 23.3,118.9 23.4,118.8 8.6,122.4 8.5,122.4 8.5,122.6 	"/>
	<polygon class="st143" points="8.9,134.6 8.5,122.6 8.5,122.4 8.4,122.3 8.4,121.8 8.2,117.2 3.6,128 3.5,128.1 8.6,134.6 8.9,135 
			"/>
</g>
</svg>
