<?xml version="1.0" encoding="utf-8"?>
<!-- Generator: Adobe Illustrator 21.0.2, SVG Export Plug-In . SVG Version: 6.00 Build 0)  -->
<svg version="1.1" id="Capa_1" xmlns="http://www.w3.org/2000/svg" xmlns:xlink="http://www.w3.org/1999/xlink" x="0px" y="0px"
	 viewBox="0 0 460 249" style="enable-background:new 0 0 460 249;" xml:space="preserve">
<style type="text/css">
	.st0{fill:#E0E0E0;}
</style>
<g>
	<path class="st0" d="M194.8,249c-4.5-19.9-5.6-35.3,0.2-39.5c20-14.3,13.5-44.1,9.6-56.2c-3.9-12.1-0.3-20.2-0.3-20.2
		c12.4,38.8,28.7,34.6,28.7,34.6s-0.3-29.2,5.9-40.2c6.2-11,14.6-21.6,9-34.6c-5.6-12.9-29.8-6.5-37.7-11.8
		c-7.9-5.3-16.3-1.4-16.3-1.4c-9.6-8.1-45.5-4.5-45.5-4.5s-36-3.6-45.5,4.5c0,0-8.4-3.9-16.3,1.4c-7.9,5.3-32-1.1-37.7,11.8
		c-5.6,12.9,2.8,23.6,9,34.6c6.2,11,5.9,40.2,5.9,40.2S80,171.8,92.4,133c0,0,3.7,8.2-0.3,20.2c-3.9,12.1-4.3,42.9,15.7,57.2
		c3.2,2.3,0.5,18.3-4.5,38.5"/>
	<path class="st0" d="M383.3,249c-1.2-4.6-2.3-9.3-3-14.2c-3.7-18.5-0.8-30.5-0.8-30.5s6.6-11,20.9-9.2l-2.1-2.8l7.7-0.5l-5.4-6.6
		l5.4,0l-4.5-5.4l11.5-2.1l-4.7-3.5l3.8-3.8c0,0-9.9-2.8-9.1-14.3c0.5-8.3,0.4-17.7-2.7-25.9c-1.2-3.1,3.1-45.9,0.1-50.6
		c-3.4-5.3-34,24.2-34,24.2S360,97,335.1,97c-24.9,0-31.2,6.8-31.2,6.8s-30.6-29.5-34-24.2c-3.1,4.7,1.2,47.4,0.1,50.6
		c-3,8.3-3.2,17.6-2.6,25.9c0.7,11.5-9.2,14.3-9.2,14.3l3.8,3.8l-4.7,3.5l11.5,2.1l-4.5,5.4h5.4l-5.4,6.6l7.7,0.5l-2.1,2.8
		c14.3-1.9,20.9,9.2,20.9,9.2s5.1,15.3-2.1,44.7"/>
</g>
</svg>
