<svg id="Capa_1" data-name="Capa 1" xmlns="http://www.w3.org/2000/svg" viewBox="0 0 38 38"><defs><style>.cls-1{fill:#f4dc75;}</style></defs><title>youtube</title><g id="_Grupo_" data-name="&lt;Grupo&gt;"><path id="_Trazado_compuesto_" data-name="&lt;Trazado compuesto&gt;" class="cls-1" d="M34.77,9.1C33.54,7.64,31.27,7,26.93,7H11.17c-4.44,0-6.75.64-8,2.19S2,13,2,16.09V22c0,6,1.42,9,9.17,9H26.93c3.76,0,5.85-.53,7.2-1.82s2-3.49,2-7.23v-5.9C36.1,12.82,36,10.57,34.77,9.1ZM23.89,19.86,16.74,23.6a1.1,1.1,0,0,1-1.61-1V15.17a1.1,1.1,0,0,1,1.61-1l7.15,3.72a1.1,1.1,0,0,1,0,2Z"/></g></svg>